<mxfile host="app.diagrams.net" modified="2024-04-23T12:03:07.657Z" agent="Mozilla/5.0 (Macintosh; Intel Mac OS X 10_15_7) AppleWebKit/537.36 (KHTML, like Gecko) Chrome/123.0.0.0 Safari/537.36" etag="D8wLJJb6Rt6pEcegdKyN" version="24.2.8" type="github">
  <diagram name="第 1 页" id="8LLeGxvNhObfWcJkShUY">
    <mxGraphModel dx="1434" dy="786" grid="1" gridSize="10" guides="1" tooltips="1" connect="1" arrows="1" fold="1" page="1" pageScale="1" pageWidth="827" pageHeight="1169" math="0" shadow="0">
      <root>
        <mxCell id="0" />
        <mxCell id="1" parent="0" />
        <mxCell id="DUQ9XiMEW-5NnPEdg38k-2" value="" style="rounded=0;whiteSpace=wrap;html=1;" vertex="1" parent="1">
          <mxGeometry x="60" y="320" width="100" height="90" as="geometry" />
        </mxCell>
        <mxCell id="DUQ9XiMEW-5NnPEdg38k-5" style="edgeStyle=orthogonalEdgeStyle;rounded=0;orthogonalLoop=1;jettySize=auto;html=1;entryX=0;entryY=0.5;entryDx=0;entryDy=0;" edge="1" parent="1" source="DUQ9XiMEW-5NnPEdg38k-1" target="DUQ9XiMEW-5NnPEdg38k-4">
          <mxGeometry relative="1" as="geometry" />
        </mxCell>
        <mxCell id="DUQ9XiMEW-5NnPEdg38k-1" value="" style="shape=image;verticalLabelPosition=bottom;labelBackgroundColor=default;verticalAlign=top;aspect=fixed;imageAspect=0;image=data:image/jpeg,/9j/4AAQSkZJRgABAQAAkACQAAD/4QB0RXhpZgAATU0AKgAAAAgABAEaAAUAAAABAAAAPgEbAAUAAAABAAAARgEoAAMAAAABAAIAAIdpAAQAAAABAAAATgAAAAAAAACQAAAAAQAAAJAAAAABAAKgAgAEAAAAAQAAAjKgAwAEAAAAAQAAAiwAAAAA/+0AOFBob3Rvc2hvcCAzLjAAOEJJTQQEAAAAAAAAOEJJTQQlAAAAAAAQ1B2M2Y8AsgTpgAmY7PhCfv/iDSBJQ0NfUFJPRklMRQABAQAADRBhcHBsAhAAAG1udHJSR0IgWFlaIAfoAAEABAAPAAsAAWFjc3BBUFBMAAAAAEFQUEwAAAAAAAAAAAAAAAAAAAAAAAD21gABAAAAANMtYXBwbAAAAAAAAAAAAAAAAAAAAAAAAAAAAAAAAAAAAAAAAAAAAAAAAAAAAAAAAAAAAAAAEWRlc2MAAAFQAAAAYmRzY20AAAG0AAAB6mNwcnQAAAOgAAAAI3d0cHQAAAPEAAAAFHJYWVoAAAPYAAAAFGdYWVoAAAPsAAAAFGJYWVoAAAQAAAAAFHJUUkMAAAQUAAAIDGFhcmcAAAwgAAAAIHZjZ3QAAAxAAAAAMG5kaW4AAAxwAAAAPm1tb2QAAAywAAAAKHZjZ3AAAAzYAAAAOGJUUkMAAAQUAAAIDGdUUkMAAAQUAAAIDGFhYmcAAAwgAAAAIGFhZ2cAAAwgAAAAIGRlc2MAAAAAAAAACERpc3BsYXkAAAAAAAAAAAAAAAAAAAAAAAAAAAAAAAAAAAAAAAAAAAAAAAAAAAAAAAAAAAAAAAAAAAAAAAAAAAAAAAAAAAAAAAAAAAAAAAAAAAAAAAAAAABtbHVjAAAAAAAAACYAAAAMaHJIUgAAABIAAAHYa29LUgAAABIAAAHYbmJOTwAAABIAAAHYaWQAAAAAABIAAAHYaHVIVQAAABIAAAHYY3NDWgAAABIAAAHYZGFESwAAABIAAAHYbmxOTAAAABIAAAHYZmlGSQAAABIAAAHYaXRJVAAAABIAAAHYZXNFUwAAABIAAAHYcm9STwAAABIAAAHYZnJDQQAAABIAAAHYYXIAAAAAABIAAAHYdWtVQQAAABIAAAHYaGVJTAAAABIAAAHYemhUVwAAABIAAAHYdmlWTgAAABIAAAHYc2tTSwAAABIAAAHYemhDTgAAABIAAAHYcnVSVQAAABIAAAHYZW5HQgAAABIAAAHYZnJGUgAAABIAAAHYbXMAAAAAABIAAAHYaGlJTgAAABIAAAHYdGhUSAAAABIAAAHYY2FFUwAAABIAAAHYZW5BVQAAABIAAAHYZXNYTAAAABIAAAHYZGVERQAAABIAAAHYZW5VUwAAABIAAAHYcHRCUgAAABIAAAHYcGxQTAAAABIAAAHYZWxHUgAAABIAAAHYc3ZTRQAAABIAAAHYdHJUUgAAABIAAAHYcHRQVAAAABIAAAHYamFKUAAAABIAAAHYAEMAbwBsAG8AcgAgAEwAQwBEAAB0ZXh0AAAAAENvcHlyaWdodCBBcHBsZSBJbmMuLCAyMDI0AABYWVogAAAAAAAA8xYAAQAAAAEWylhZWiAAAAAAAACDCgAAPW7///+8WFlaIAAAAAAAAEv6AAC0IQAACuBYWVogAAAAAAAAJ9IAAA5wAADIkWN1cnYAAAAAAAAEAAAAAAUACgAPABQAGQAeACMAKAAtADIANgA7AEAARQBKAE8AVABZAF4AYwBoAG0AcgB3AHwAgQCGAIsAkACVAJoAnwCjAKgArQCyALcAvADBAMYAywDQANUA2wDgAOUA6wDwAPYA+wEBAQcBDQETARkBHwElASsBMgE4AT4BRQFMAVIBWQFgAWcBbgF1AXwBgwGLAZIBmgGhAakBsQG5AcEByQHRAdkB4QHpAfIB+gIDAgwCFAIdAiYCLwI4AkECSwJUAl0CZwJxAnoChAKOApgCogKsArYCwQLLAtUC4ALrAvUDAAMLAxYDIQMtAzgDQwNPA1oDZgNyA34DigOWA6IDrgO6A8cD0wPgA+wD+QQGBBMEIAQtBDsESARVBGMEcQR+BIwEmgSoBLYExATTBOEE8AT+BQ0FHAUrBToFSQVYBWcFdwWGBZYFpgW1BcUF1QXlBfYGBgYWBicGNwZIBlkGagZ7BowGnQavBsAG0QbjBvUHBwcZBysHPQdPB2EHdAeGB5kHrAe/B9IH5Qf4CAsIHwgyCEYIWghuCIIIlgiqCL4I0gjnCPsJEAklCToJTwlkCXkJjwmkCboJzwnlCfsKEQonCj0KVApqCoEKmAquCsUK3ArzCwsLIgs5C1ELaQuAC5gLsAvIC+EL+QwSDCoMQwxcDHUMjgynDMAM2QzzDQ0NJg1ADVoNdA2ODakNww3eDfgOEw4uDkkOZA5/DpsOtg7SDu4PCQ8lD0EPXg96D5YPsw/PD+wQCRAmEEMQYRB+EJsQuRDXEPURExExEU8RbRGMEaoRyRHoEgcSJhJFEmQShBKjEsMS4xMDEyMTQxNjE4MTpBPFE+UUBhQnFEkUahSLFK0UzhTwFRIVNBVWFXgVmxW9FeAWAxYmFkkWbBaPFrIW1hb6Fx0XQRdlF4kXrhfSF/cYGxhAGGUYihivGNUY+hkgGUUZaxmRGbcZ3RoEGioaURp3Gp4axRrsGxQbOxtjG4obshvaHAIcKhxSHHscoxzMHPUdHh1HHXAdmR3DHeweFh5AHmoelB6+HukfEx8+H2kflB+/H+ogFSBBIGwgmCDEIPAhHCFIIXUhoSHOIfsiJyJVIoIiryLdIwojOCNmI5QjwiPwJB8kTSR8JKsk2iUJJTglaCWXJccl9yYnJlcmhya3JugnGCdJJ3onqyfcKA0oPyhxKKIo1CkGKTgpaymdKdAqAio1KmgqmyrPKwIrNitpK50r0SwFLDksbiyiLNctDC1BLXYtqy3hLhYuTC6CLrcu7i8kL1ovkS/HL/4wNTBsMKQw2zESMUoxgjG6MfIyKjJjMpsy1DMNM0YzfzO4M/E0KzRlNJ402DUTNU01hzXCNf02NzZyNq426TckN2A3nDfXOBQ4UDiMOMg5BTlCOX85vDn5OjY6dDqyOu87LTtrO6o76DwnPGU8pDzjPSI9YT2hPeA+ID5gPqA+4D8hP2E/oj/iQCNAZECmQOdBKUFqQaxB7kIwQnJCtUL3QzpDfUPARANER0SKRM5FEkVVRZpF3kYiRmdGq0bwRzVHe0fASAVIS0iRSNdJHUljSalJ8Eo3Sn1KxEsMS1NLmkviTCpMcky6TQJNSk2TTdxOJU5uTrdPAE9JT5NP3VAnUHFQu1EGUVBRm1HmUjFSfFLHUxNTX1OqU/ZUQlSPVNtVKFV1VcJWD1ZcVqlW91dEV5JX4FgvWH1Yy1kaWWlZuFoHWlZaplr1W0VblVvlXDVchlzWXSddeF3JXhpebF69Xw9fYV+zYAVgV2CqYPxhT2GiYfViSWKcYvBjQ2OXY+tkQGSUZOllPWWSZedmPWaSZuhnPWeTZ+loP2iWaOxpQ2maafFqSGqfavdrT2una/9sV2yvbQhtYG25bhJua27Ebx5veG/RcCtwhnDgcTpxlXHwcktypnMBc11zuHQUdHB0zHUodYV14XY+dpt2+HdWd7N4EXhueMx5KnmJeed6RnqlewR7Y3vCfCF8gXzhfUF9oX4BfmJ+wn8jf4R/5YBHgKiBCoFrgc2CMIKSgvSDV4O6hB2EgITjhUeFq4YOhnKG14c7h5+IBIhpiM6JM4mZif6KZIrKizCLlov8jGOMyo0xjZiN/45mjs6PNo+ekAaQbpDWkT+RqJIRknqS45NNk7aUIJSKlPSVX5XJljSWn5cKl3WX4JhMmLiZJJmQmfyaaJrVm0Kbr5wcnImc951kndKeQJ6unx2fi5/6oGmg2KFHobaiJqKWowajdqPmpFakx6U4pammGqaLpv2nbqfgqFKoxKk3qamqHKqPqwKrdavprFys0K1ErbiuLa6hrxavi7AAsHWw6rFgsdayS7LCszizrrQltJy1E7WKtgG2ebbwt2i34LhZuNG5SrnCuju6tbsuu6e8IbybvRW9j74KvoS+/796v/XAcMDswWfB48JfwtvDWMPUxFHEzsVLxcjGRsbDx0HHv8g9yLzJOsm5yjjKt8s2y7bMNcy1zTXNtc42zrbPN8+40DnQutE80b7SP9LB00TTxtRJ1MvVTtXR1lXW2Ndc1+DYZNjo2WzZ8dp22vvbgNwF3IrdEN2W3hzeot8p36/gNuC94UThzOJT4tvjY+Pr5HPk/OWE5g3mlucf56noMui86Ubp0Opb6uXrcOv77IbtEe2c7ijutO9A78zwWPDl8XLx//KM8xnzp/Q09ML1UPXe9m32+/eK+Bn4qPk4+cf6V/rn+3f8B/yY/Sn9uv5L/tz/bf//cGFyYQAAAAAAAwAAAAJmZgAA8qcAAA1ZAAAT0AAAClt2Y2d0AAAAAAAAAAEAAQAAAAAAAAABAAAAAQAAAAAAAAABAAAAAQAAAAAAAAABAABuZGluAAAAAAAAADYAAK4AAABSAAAAQ8AAALDAAAAmgAAADYAAAFAAAABUQAACMzMAAjMzAAIzMwAAAAAAAAAAbW1vZAAAAAAAAAYQAACgRAAAAADZk12AAAAAAAAAAAAAAAAAAAAAAHZjZ3AAAAAAAAMAAAACZmYAAwAAAAJmZgADAAAAAmZmAAAAAjMzNAAAAAACMzM0AAAAAAIzMzQA/8AAEQgCLAIyAwEiAAIRAQMRAf/EAB8AAAEFAQEBAQEBAAAAAAAAAAABAgMEBQYHCAkKC//EALUQAAIBAwMCBAMFBQQEAAABfQECAwAEEQUSITFBBhNRYQcicRQygZGhCCNCscEVUtHwJDNicoIJChYXGBkaJSYnKCkqNDU2Nzg5OkNERUZHSElKU1RVVldYWVpjZGVmZ2hpanN0dXZ3eHl6g4SFhoeIiYqSk5SVlpeYmZqio6Slpqeoqaqys7S1tre4ubrCw8TFxsfIycrS09TV1tfY2drh4uPk5ebn6Onq8fLz9PX29/j5+v/EAB8BAAMBAQEBAQEBAQEAAAAAAAABAgMEBQYHCAkKC//EALURAAIBAgQEAwQHBQQEAAECdwABAgMRBAUhMQYSQVEHYXETIjKBCBRCkaGxwQkjM1LwFWJy0QoWJDThJfEXGBkaJicoKSo1Njc4OTpDREVGR0hJSlNUVVZXWFlaY2RlZmdoaWpzdHV2d3h5eoKDhIWGh4iJipKTlJWWl5iZmqKjpKWmp6ipqrKztLW2t7i5usLDxMXGx8jJytLT1NXW19jZ2uLj5OXm5+jp6vLz9PX29/j5+v/bAEMAAgICAgICBAICBAYEBAQGCAYGBgYICggICAgICgwKCgoKCgoMDAwMDAwMDA4ODg4ODhAQEBAQEhISEhISEhISEv/bAEMBAwMDBQQFCAQECBMNCw0TExMTExMTExMTExMTExMTExMTExMTExMTExMTExMTExMTExMTExMTExMTExMTExMTE//dAAQAJP/aAAwDAQACEQMRAD8A/e+Z/s8RmxnHb9K5bUfFH2XevkbtuP4sdce1YfxWTyPBF/c5zjyuP+2qCvxc+OWteT4r1Q+VnHkfxf8ATOP2rirVuUhs/a4eM90P/Ht/4/7/AO7U0fizdF/x7/8Aj/8A9av517fxL8gHkf8Aj3/1q6nT/EO6BP3Pf+97/SvPljbMzcj+gWHxThf9R3/vf/WpX8T7vm8j/wAe/wDrV+CB17H/ACy/8e/+tWXf69wf3X8P97/61Q8y5f6/4AKZ+/MnizZ/y75/4H/9aqreM+f+Pb/x/wD+xr+cnXNd+9+6/wCWZ/i+vtXlt/rv74fuu3976+1Czb+v6Q+Y/qE/4S/d/wAu/wD4/wD/AGNPTxh5P/LvnP8At/8A2NfyqNrv/TL/AMe/+tVq28SfZ937nOcfxf8A1q1jmj/r/hirn9U48aZ/5dv/AB//AOxpx8YZ/wCXf/x//wCxr+WqLxj1/wBH/wDH/wD7GumtPFed3+j+n8f/ANauiOZeX9fcM/puXxbz/wAe/wD4/wD/AGNS/wDCW5H/AB7/APj/AP8AY1/NOPFW3nyP/Hv/AK1UL/xlsiH+jfxf3/8A7GtFjr6Az+mNvGW3/l2/8f8A/sajPjjH/Lr/AOP/AP2Nfy53PjbJP+jd/wC//wDY1WXxf5hx9nx/wP8A+xpPFCTP6kf+E53HH2X/AMf/APsamTxhuGfs/wD4/wD/AGNfzB2HiPfKg8nGR/e9vpXcWWtfuVfyvX+L3+lYyxZcT+kU+L8f8u//AI//APY0g8Y5/wCXf/x//wCxr+by48Qbc/uf/Hv/AK1Uk8R/Pjyf/Hv/AK1ZvGGqVz+lH/hL/wDp3/8AH/8A7Gj/AITDHP2f/wAf/wDsa/m8TX9wB8r/AMe/+tStr2B/qv8Ax7/61L69bU0Ubn9IY8Ybj/x7/wDj/wD9aph4m3c+R/49/wDWr+bAeJdjD9zn/gX/ANatCHxXkY+z9/7/AP8AWpf2r/X9I0VE/o7fxNg48j/x7/61C+KP+mH/AI9/9av504PEPnOv7nHIH3v/AK1dbpt75rK23HzgdfpS/tb+v6RpHD3P6Av+Eq/6Yf8Aj3/1qePE2f8Alh/49/8AWr8Kkn5HHeti0usY+X+L1qXm3l/X3G0cKfuCviDdz5P/AI9/9aphr2f+WX/j3/1q/F+0u+B8vf1/+tW1FdZz8v60f2t/X9Iv6pc/Yh/EuP8Alh/49/8AWqMeJ8/8sP8Ax7/61fj7Lf4x8n6//WquNRx/B+v/ANah5z5f19wf2cfsO3iLd/yx/wDHv/rVei13dn91/wCPf/Wr8eYtQ3Z+T9f/AK1dTa3Wd3y+nes3nVun9fcP+zj9ZTrGRny/1/8ArVEdX5/1f6//AFq/LT7ftQDZ+v8A9ampqPzH5P1/+tWcs78v6+4tZcfqb/a/GfL/AF/+tTDrWP8Aln+v/wBavy9N/wDKPk/X/wCtWXc6h1+Tv6//AFqj+3PL+vuH/Zx+pkniXymK+RnH+1/9aox4n3NjyP8Ax7/61flBPrGzKeX+v/1qzJNYyx/d/r/9arjnfl/X3EvAW/r/AIJ+v0ev5UN5X/j3/wBaq9x4m8vP7jOP9r/61fjzeapmFv3fp3/+tXnOual80vyf3e/09q3jnPl/X3GMsIkft23i7HH2f/x//wCxqH/hMcH/AI9//H//ALGv5/Na1H999z+D1+vtXJT6pg/c7ev/ANatFm/l/X3GE6Fj+jBvGv8A07f+P/8A2NEXjPJH+jd/7/8A9jX838mrc/6v9f8A61EWs7SP3ff1/wDrVX9r+X9fcc8qZ/SrF4o81d3kY/4F/wDWqRvEf/TH/wAe/wDrV/ODbeJfKjK+RnnP3v8A61WR4rx/y7/+Pf8A1qtZlfX+vyMJKx/RRL4n2Y/cf+Pf/Wqg3i/b/wAu/wD4/wD/AGNfzxt4i3/8scY/2v8A61UJdXzj93+v/wBaj+0F/X/DGMmf0V/8Jju/5dv/AB//AOxqRPGOD/x7f+P/AP2NfzjrrGz/AJZ9ff8A+tWTd+JNmf3Ofmx97/61H9or+v8AhjO5/SkfGnH/AB7f+P8A/wBjTU8Z7mI+zf8Aj/8A9jX8zbeKcnHkf+Pf/Wq1a+J8v/qO397/AOtR/aC/r/hi1I/poHijeo/cY/4F/wDWoPiXH/LH/wAe/wDrV/OJY+JcAHyP4f73/wBarj+J+v7j/wAe/wDrVSxfMVz2P6MB4nwM+R/49/8AWqOXxbtB/wBH/wDH/wD61fzlnxRz/qP/AB7/AOtVC68UfK37j0/i/wDrU/rIe0P6NH8YZbb9n/8AH/8A7GhfFvIH2f8A8f8A/sa/mnvPFezcfs/TH8X/ANasRvGmJcfZvT+P/wCxo+skuof0+J4n8xh+4xzj73/1q0o9a3oW8r/x7/61fzG6d42wy/6N/GP4/p/s16HYeOP9Hb/Re5/j9v8Ado+sk+1P6H7rxB5Mgbyc4Gfvf/WrKuPGuHA+zdv7/wD9jX85vibx3lJI/sv3oSP9Z65/2a8K1LxTunB8j+H+97n2o+sidS5/VPF463Z/0X/x/wD+xq/F4r87P7jGP9v/AOxr+S+117du/den8X/1q9p8Papu8793/d7/AF9qwnjBXP6b5fEWMfuf/Hv/AK1NHi7P/Lv/AOP/AP2NfzsSaztx+7/8e/8ArVW0rxBjzP3Xp/F9falDGXLUj+kfS9Z+13Bj8vbhc5znuPaujlO+IGvya+C199o8U3CbcYtXPX/bSv1A8KR40ezbPW3j/wDQRXpUK3MbJ3OlV8KBil8z2qYHAxRurruUf//Q/a34q/8AJPr/AH8/6r/0alfip8eIEbxHqrhR/wAsO3+xHX7WfFj/AJJ9qGP+mX/o1K/FT46q/wDwkOq88fuP/QI68XGXMqmh88QQqIwcCt6zdEjQY6H+tZlov7ld3PWtSLaFHFeDVTuc7maqyoSOKgu1V84A+7Swsvcd6uiMPzgfjXOk1uOLucFqlgJQ2Av3COfx9q89vtEYzDiPp/ntXutzaxlW+Vfu+lcleWSeaPlXp6f/AFq1iy7XPA7jSnXH3P8AP4Vn+SI/vgHNepX9gvyYVe/auC1C3Mezpznp+FdUC0jEVkHQV1dlg7vwrhYi4zuNdfYTAb857V2QNEjbuXKIDk9a5e8uWbKknhq0NW1CNLZSNw+YdPoa4WXU0kkZVLZBP+etasbiam0ysR+PNbtnp5fBwv3f89qoaSEmcZGfkzz+Fd3bwKsakAfdHaueUmRyEumaeomjyq9PT2+leiWOno1qoCpnnt7/AErktPx9pQY9f5V6fpMQe3jGBzn+ZrnnJmsI3OSv9OCh/lXt/npWRHY/vBwtd7rMIihkYgcY6fhXn01+kV0U+bj0+lc7qM64Ujdg04FBwv8An8KnOl5GNqf5/CodLvklaNfm5z1/Gu80uGKdRlQcvjkfSo52bqi7nnz6K5cYCf5/Cr1r4fmbBHl9f89q9fttBjndQEi5YDkf/WrtNN8FmQAhIPvY6fT/AGaftDrjTPGNK8MyPKmRF/rB/T2r2PQfCGVDMkBxJ6fT/Zrv9L8EGN0JS34cHp9P9mvUdL8PRwQHdHF97PA9h7Ue0OmFE8o/4ReEf8sof++R/hUieHI06Rxfl/8AWr1+bTY+yJ09P/rVROnrn7q/lS5zpjSPPIdEAxhY+vp/9atBdHx0VPy/+tXbCxUD7q/lSNbAdhS50aqmcLNp8Qx8ifl/9astrKMfwr+VdtPCOOBWJJEOOBUuojT2RnwW0Qz8q/lXYWdtEd3yr27VgRR4z0rqrRfvfhWcpotUhZbNdgIVf8/hWaYQrngV1RjBiXp2qg8KEngdawlNFeyKEcSkDgdKqT2gOeF6/wCe1byRAdAKSSEY6CsnND9mcRdWsalsqvbt/wDWrHlgiBPyj8q7u7t0wxwO3auZvIMFiAO1bQmiHTRzF1DGY2AUdu1cTqtgrtJ8q847fSvRJkAU5rnb2JWLcDtXTCaOepRPJtS0hHYnZH930+vtXJ3GiKW4SPp6f/Wr2e5sg+Thelc9d2ABJCr09K6YyRw1KJ5XJoKhSdkfT0/+tWPcaWIzwqDjPA/+tXptzbEA9Olc3d2buTjHSr5kcU6J55cwtG4UYHHas1pSO5rsLvT3Eg3belcjLZTcYI/M07nn1KLuadmRJuzzjHWumi05ZM/KnHqP/rVzlrG0e7PfHSuyt50Gcg0c5zSw7Ma/05YdnypznoP/AK1cFqkIBYYH3z/Wu41W6Y+Xy3f+lcddgyE/72eaOcydFo5zycselTwR7XycdK0ltSeeKmSAA9BTuzNxaLFu+0D6Uk9xtB5NOcbIwRx9Kxr6bajde1axkxPUklvSCeWrHvNRwrDLdv8APWsK+1AozDLcY/z1rltQ1faj5Z+3f/69bK7JaZvXeqqGbcXI4/z1rJOpwtLkBuSP89a8/wBQ1z53+aTt3+nvVGHVjIVIZ+T6/wD16rkfczaPYIdSRBkbhg54/wD110NjrhMDANJ1Pf2+teTafNNPj5z97HJ+ldUkNwImKNjr0JpcrJdy5r+rO823e/MeOvufeuQ3ed8x57c0ahHctJlnz8vcn3ptnDIIjuOeal3Q0drpWlRP5mY07dvr7V6/pdnFH5m1FGcdB9a4fR0QeZkDt/WvULNV+bA9K46nMMp3rsu3BI61n6deRnfgHt/WpdVLDy8HHX+lcfp9w3z4J7d6VKLuaI/Ub4EOX8XXIyf+PN//AEZHX6teF1YaJZHP/LtH/wCgivyQ/Z4uN3jW6DkkfYn6/wDXSOv1r8KSb9IswM/8e8f/AKCK9/Cpm8Tqdr+tG1/Woy5zRvNeman/0f2x+Ki58AX/AP2y/wDRqV+MPxzjB8QapwP+WH/oEdfs98Vsr8P78/8AXL/0alfi98cZlHiPVAc/8sP/AECOvJxUTGszwm0ty0K4x3/nWpFZOVB+X/P4UzTHjMCZHr/M10cJi2D5a8WrDU4mzNisXyPu9f8APatFLYoMHFXEaIfw02eVM8DHFc8oGtNmbcxjaeB0rl7pUEgyB0robycAEc/drkbubMg5PSpijpSOYv0jGz5R3rzXWTH+7wPXt9K7vUZH+TBPf+leZazI37vk9/6VvDc1jE5LzFHatC3usZwT/n8a5R5X45P51o2bu27k9q6oyNVBi61dyG1UBm++O/sa4NbiYXDku3U9/evRb+zMkIXjr3/GsFNI/eFiE5/z6Vq5aFqB0nhyViykk/6od/pXohuhHbp16D+Vclotl5ZXhf8AVgcfhW5eqwgUA45/pXNKY/Zmnp+pj7agy3f+R969b0W7aS0i2FgTu7+5rwXTYpW1BPm9e/sa918J2U0yW8YI539c+9c05m1OldkmswXtxBIEkxnHUn1FebXOg6tNeMVmUZ9Wb0+lfScXhuaaMBvLOfX/APVWnp/ggy3SFo7c5z1Hsf8AZrmlI9OlQPC/DnhXWGeHMyH738Te/wDs17L4f8J6oqqzSRkCQd29v9mvafDvgONRCxhtv4v4fr/s16Zp/hGKCIkxQcNnhfp/s1DmdKoHkmj+HbgMm8xn94PX29q9c0XRCANyxn5/T6e1dDZ6VaxkDyo/vZ4Uf4V2On2cAIwij5vQe1Tzm8aBmW+jhULBY+D6f/WpzwPE4QYAPpXdrFAkTAoO/YVhXgh80YUdPSlznVCgYLw54wKrm0PtW8EQ9hUqwoecD8qXtDpjQOYa1YelVZLc8dK7NrdCPuj8qrNap/dX8qXtDT2Bwc9keOFrDksjxwtekT2g44X/AD+FYcloOOF/z+FLnH7I49LRhnpXR2tsw3dO1SfZl9B+VbNtCPm4HaolK5Xsxv2c+UvTtVKS3IPbrXRbF2AYFUJUGT061hKQvZmWsX0oZB6CrRGKYVqLj9kZU9vuzjFYF7aH5unauyKAjtWddwAq3A7VtB6CdI83vICu4cdqwJ7csT0rvr60OW6dq5+a1wx4FdMJGc6Jyb22AQQOlY93Z5BIC/drtpYVDYIFV5bVGU/KvT0reMzkqULnkt7aMDjj7tY32Esei16je2CZ+6v3fSsY2K54VfyrRTOOeHPOLvSS8gICdP8APauZuNGK4+VP8/hXtjWCE8qv5Vh32nJ8uETv2q1I454U8IuIWjxjAz6UyK4lOcM3513F3pJfbtCcZ/z0qjFojDPEf+fwo5jGWHOTmgmnx83T1pYtKdzzsPHf/wDVXpUWg9flj/L/AOtUp0lYuSqenA/+tQpHJUoHnv8AZOFHCf5/Cqz6dtJ4X/P4V21zEqZAA4OOKynRSTwK2icU6JylzYt5Yxt61zOpWLmN8be39PavSZolKAYHWse7tVdW+Ve3atYnO6djw7U9OmLPgr29fb2rjNS0m6ZHwy9u59vavoG40uN2bKIfw/8ArVkXehxsjfu4+3b/AOtXTAzcD5b1DRbsu/zL27n29qr22k3MZTcy8H1Pr9K+g7vw/EZGzHF27f8A1qypfD8Y3FY4hgen/wBatkZygcNpMJiKhsH5wf5V6HaRpJERgcnHIrF/s1oXGAo78f8A6q2LQNGuCe9JozcbDLjS1kcHanT0/wDrUkelKi42p+X/ANatbzVIwRTlORWMkKxqWgWDdkdcdK6S11iFd3D9vT/GuPlEoxtbFYMdxcjOJG/M1zTQ7HpF7exzbcZ4z1//AF1n6Tp7yeZjbxj+tZkQmkzlunqTXovh6zH77cFP3f60UlqXFH3/APs/6a8XjK5b5f8Ajyfp/wBdI/av1c8KJt0q0B7W8f8A6CK/Nj4F2ijxbcYCj/Q3/wDRkdfpb4bQrp9sP+mCfyFe3hjdHS7B6Cjyx6CmZPrRk+tegaH/0v2t+LrbPh7qB6f6r/0alfhx8e9V8nxVq0fmYx5Hb/pnH7V+33xsdovhlqcicEeT/wCjo6/n3/aN1eWHxXrJMmGH2ft/0zi9q4MTHQ5qpzmma3iFB5vr/D7n2rqLfWSyL+8/T3+lfOul+IZDBGTN6/w+59q62y8Qyfu187jP933+lePUhqcttT3SDUGf+PPPp/8AWqxJcsf4u3pXm9hrROP3n8Xp/wDWrpY7/wA1SQ+e3T/61ctWNkb04F+6lLA4PasGWMu2cdqv+YX4zmpFg3DJFcyOyMDiL6yLbcL69/8A69ecaxppPl/J69/p7177Jpfm4/d5x7//AF6wb/wm0+zZb5xn+P8A+yrRM6oU7ny62lHvH+v/ANetOy0v73yenf8A+vXslz4HdNu21xnP8f8A9lWUnh2WDP7nGf8Aa/8Ar1spm6pHD3WngRj5O/r/APXrNFgM/c/X/wCvXod/p2IQdnf1/wDr1xzxXfnukY6E+nrTdTQr2Rs6VYkkAL/B6/Sun/4R97mMAQ7u/wB7H9aq6DY30rgbM/u89R7e9e5eHfDNzdBBJBu/dA/eA9PeuaVQrkPNtE8DySX8R+y5yCfv/wCyf9qvofwd4FaP7M7WuAN/8f8Avf7Vd74Z8AQtcWrtaclMn95/s/71fQHhzwRbxpCDa4xu/jPv/tVzTqG9GnqeSWngxfLXFt6/x/8A2VdLpfg4C4j/ANH9f4/Y/wC1XvEPhK2SMYt8f8DP+NSLoUdtJlIsFf8Aa/8Ar1yyqHr0oaHJaX4ZWCCM+RjGf4vc+9bJ0wRxsoTHB7//AF66yC2ZYwpHH1plzCACAO1R7Q6owOIW02MPlx+Nb1jGAASP4qtQ2aOQZFzz61qx2cManauO/Wp9obxgivKwCED0rCmUu2TzxW9MgBwfSqLQxHtzS9odMIIzFjf0qwquBUxiYdBTQH70nM3URhV6jKv3FTncKiYvS5y7GfMQcZrEk28VrSN0rDmfGMVXOLlK7FRWjbvjPNYZkJ6mr8UjDPNQ5j5Tc8wbRzVSVh+tMDsVHNNJz1rNyHyIibmgLUmBSgelTzBykRGKqTLuzkVdcqODVaQrg1rGRLSMG7twQxx6VzlzAoLceldjcBSprCuYlJbj0rWMyGjlZoCWyo7VVeJwCMdq35YgOg7VmzKe3pW8ZmM4o565tmc5x29azDZtn7v610pRmPSnpaq3Vf1rRTOaVM5b7E5/h/X/AOvWfd6Y7bfk9e//ANevRF00MMqn6/8A16mOjo/WP9f/AK9a85zypHi6eGzL1hzj/a/+vT/+EW2/8sP/AB7/AOvXtUWhwLn91/48f8asS6LbjGIv/Hj/AI1POYzoqx47/Yixfeixn/a/+vWLqFgkaZCY+bHX6161e6eV25T17/8A164PWrZ1Q4H8fr9auMjgq0jyG/iIdhj+I1ktF7V0epQyB24/jP8AWsF1lzXVFnmVYFFkLHbVeW2LKfl/WtFI2DEsKjcsHIHSt0ckqdzFOn7m5T9f/r1DPpf7s/u/1/8Ar100ceQGIptwuIzxXTBmbpnmt7pm1mOz07//AF6yn01Spynb1/8Ar12WosFZ89OP6VhGVS+0Hg1ukYTgchc6YgbOzt6//XqgbYRjhcd+tegvaQyozFc8etc9fWexWKLjCk9f/r07GTico5dXHYVYjlTHJrF1GS8imAQ4G3Pb3qrDdXRX943OfQVFjOx6CIo5O2cVnDTol/g/X/69Lb3nXLfp/wDWretBBNu384x61zziFiKKOFM5GM12eiXcaeb82M7e31rlrxIo9vljGc1kWmt+Vu2y4zj+H/61KERo/XD4DX8Uni+5G/P+hv2/6aR1+m3h0q2m2xXvAn/oIr8dP2cPEE1x44ukabdixc/dA/5axe1fsD4TkEmjWTZyTbRn/wAdFexh0bxOq+TvR+7pMCjAruLP/9P9oPjif+LXaof+uH/o+Ov5yf2n7iVPGWuKp4/0bt/0zir+jT45H/i1eqH/AK4f+j46/nJ/acQN4x1sn/p2/wDRcVcdc56iufMul3dz5MYDevYeprstPlu2aLnqw9PWua0S0V4Yjtznd39zXpOj6bGfILJ/EO/+19a8iruZxgdLpaXbbeP4x6e1ehada3TJgr/F6j2qppOm2wAyn8fqfb3r0fS7C1IA2/x+p9veuOs9DqpwMu00i4kwfLzzjqP8a6CDQptnzRd/7w/xrt9L0u1ZRiP+P1Pt711kWj223/V9/U/41xXO2EDz+18OF92Yc9P4v/r11Vj4Lhn3b7bOMfx//ZV3Vlo0Z3fu/Tv/APXrvNL0eNd/7v07/X3o5jvpUzxiX4aQzYxZZx/00/8As65a5+EzfLt0/wBf+Wv/ANnX2PbaPbtu/d+nc/41cfw3aPj9z/48f8aPaHWqR8DXnwhuJIgBp2ef+eo/+LrnIfgncNcuW0zg5/5bD1/66V+hzeFLQjm3/wDHj/jUUfg+yDlhb9f9s/40nUK9kfHHh/4NtFIC+nY/d4/130/26968N/C+GAIWscfugP8AW/T/AG69psvDFtG2RBj5cfeP+NdrYaVDEB+7x8uOv/16wlMh0TidI8HWtqYWNtt2KB98n+HH96u/sNNtbcIAmMZ7n3960vs6ogIHSo8lW9q5pzNqdOzLvl24Tp/Osq6SLexUelWvN4xmq0m1ia5pTPSpR0KR4Xiqku5mwa0yseOaryIn3gOgrPnN0ivDEo6jvVlsAHFQBsUjScEZp8xrEq3ByfwqkvLgepq1Ic/lUAGGB9Km5vAsNEvpUJjX0qVpCehpgJPWjmNUyB4x6VVZa0HU1WdM44o5h3OfkjPHFYk8R4wK6eVRxisaVV44pOQuYwfIPYVcjibnirAjXsKmUKKnmDmIwpAAo2+1WxHkZxR5Y9KVyvaFYLTwp7CptoFOAUUXDnMyYMGNUZCwzWxMgJJrOljHPFXzEtmZISQaz5lznitSVcZ4qjKOtUpBYyZYsnp2rOmg9u1bjqKpSL/KtYzJkjFEAzyKtxwp6d6ey89KVTitlIxcS/bpEEIb1rRVID2/nWMHYdDVpJnGcmr5jCUTT2xVJtieqJZ+xqxEWOaXORKFzPvbBH24T17/AP168/1vSsocR/8ALT1+vvXrUqA4yK5rU7RJE+7n5s9frW9ORx1aZ85arpTBm/d/xnv9feuRuLPyycrjn1r3LVtLX5js/jPf6+9eZ6tZ+WWwuPnI6/Wu+meXVpHEyKie3NZ77TKcVoXiuMgf3qyTv83muiJySp2NGPHliobgZjNSRZKinSRlkPFdVMxlA4jVY2bzAo9P6VzDLIknIxiu9vrY73JXjjvXNXVry5Ve3r7V0o5pwK0E67drHqaS4gSZSAM5GKqLHKpHFXEcrwxpnNKJyV/oRlbeIs4X+99feufk0eWNtojx+P8A9evXYooZ0ORnPFVbjSYS4Pl9vX/69JIyaPIGlmg+8cZq/a69FFu3S4zj+H/61WdX01k8vamM57/T3rye/uru22YbG7PYdqxmiT1a58QwybcTZx/s/wD1q8+XWJV/5afp/wDWrmItXuXzmTOPYf4VUS5d+jZx7VMFqCR+q37Lupyy+P7xfMz/AMS+Q9P+msXtX7ieCXLaBYMe9pF/6Atfg9+yoJB8Q7zP/QOk/wDR0Nfu74GP/FPaf/16Rf8AoC16lDc3R3GRRkU3Bowa7Rn/1P2e+OeP+FWaoP8Arh/6Pjr+cf8AabcjxnrYzx/o3/ouKv6NvjqQPhXqp/64f+j46/m8/agnC+MtcORn/Rv/AEXFXJW1Mpo8L8Pv+5h5/vfzNen6VLtWH5hw39a8Z8PXmY4VJX+L+tem6fcDy42BHX+teTWjZhBHrdlqDR4AkA+b2rs9M1hxj98v3/8AZ9q8WhupmYAAdfT/AOvXUaa9wXUbOrjsfavNrSO2lTPo3RNYdgoMy/6wf3favS7G78yIsXB59q+fdBjn+U7D/rB2PtXs2ixSNasWUj5z29hXC5HbTps9j0uJH38Zxj+tei2Fmg3/ACHt61xGixAeZ17f1r1SyiX5ufSocz0qVMsWsYXdx6V0kUEZzkVnQwLz1rchTGannudagV2tocfd/nUawwBuR+taDrxVUxKTzUuRapluCKDPHp61rxRxgDA7VkQKqnr2rXhZcDntWUqiKdMkcLtxVCcAAkCtBtuOtUrjaEJBrmnMIxsUCWxTCXpxc0m4nisHI6oNIgJfNRsWPBqyw4zULZFTc2TuQMoHaoGqwWJFQlc07jRWYZpoXnpVsRD3pwhGe9FzeLKhTnpT1QelXPK+tPEQ96ls0RSKcdKrunTArWMXHeoWhHvRcGzlpUPHFY8qHjiuslgAx1rElixjrUmLZkbMdqNntV7yvrSiId80rhzEa/dFRscVZ2Hpg1E8XHQ1SHzFUtzTS/oaVkIPQ1HsNVYOYGbI5qnJjJq35ZI6Go2t93PNDLTMuUDms2bqa3pLbg8Gsue35PWmi0zHkOOPaqj9K0ZoOe/SqLoRxg1cWDZSYGm7as7CTyDS+V9a1UjNlccdakWQetK0fPeq5jC1opGTRsIQepqWOQDPNYv2p16YpRdE+lNEOx07OH6HNZd2Mj8arx3rLnG2o5rkuOcda3ps552OZ1KJGByP4v8AGvL9btlIbCn/AFh9fevW7tQ6/jXDapZh89fv/wCNd9OaRwVKdzxm/tgCflP3vesV7ceZ90/rXo2o6aMEgN97/H2rAl07BJw3+fwrrhK5w1KbRgxRAIMCrSwgr901oLabeMNTzHsH0rphOxzTps5q9tVYN8hJ49axJdPUqxMZ6e9dpPt5Yms2SReVyMV0xnc5alM4SbT0U8Rkce9ZFxDscAA9K764SIozbux71x98yLKOR92rTOSUB+nRsY84P3v8K02jBPIrLtL1YoioZeueTWhFdiRdxK0XsYyichqVlG+zchOM+vtXh3iHTI18nERH3vX2r6Tuoo228+tePeJIF/c9f4v6VEjNxPD4IAM/Kat2Fnv35QnGPWonuUhxhl59av6NqcLeZmRO3f6+9EYAlY/Uf9lywVPiBeHyyP8AiXyev/PWKv3A8FLt0GwGMYtIv/QVr8W/2YLiB/H14A6n/iXydCP+esVftV4P2nQ7Eg5/0WL/ANBWvQoxsWmdgOlFA6UV1juf/9X9lvj4dvwp1bH/AEw/9Hx1/M5+1XfSR+NteUbePsv/AKLh96/pi+Poz8KNWP8A1w/9Hx1/Mt+1ba7/ABrrzYPP2X/0XDXHVdglC581eHtUkCw52/xf1969a0jUmZIR8vLf+zfWvE9DsyFiIDfxdvrXrGi2zBIOD970/wBqvKrsqlTPX9LPmspP98Dj8K9U0HT1mZD83+sA4/D2rzLQLYnbkH/WD+le6+F7Uho8A/64f0rxcQ7Hp0qZ6R4f0RSgOJP9Z/h7V6tpmlCOAjD/AHv6D2rI8O22IhkH/Wf4V6RaW+Iz16158qh6NOkbWmx7N/vj+tejWEh+f8K4W1jxu69q7O0ym7A9KwdQ9GlROutgDuz7VsjArBtZPvZx2rUM3pimqh2xok5YHvUMpwuRVfzPpSs+5cU5T0KdElSUj0q7FP8ATpWVkVIshHFc7kS6ZrNcHb2/z+NVZJywI4qo0h21AHJfBrJszcC3uqReargjNWYx0NKwKI4g4qBwaubeKiZafKWtClto2ipyvFM2ilYtCKtTrF9aIxn86uqopWNYsr+V9acsOfWre0U9FpWKuVTCMd6iaEe9axQYqFoxSaE5HNywdOtYcsHTrXXSr0rDlXpRYhyMPyR70eSPetAx46U3ZU2IuUlhGe9DW49/8/hWgExzTyoxVI0ic7LB169arGL61tyryfrVNo+ciqTNEiqsIK96lW1z2NXIo8gdauxxjA60ikjDltBtPWsa4tBlutds8IKnrWRdQct17U7lpHFz23PQ9KzpLXnoeldZPB83fpWfLDz36U7hY5z7MPf/AD+FNMAHrWy0QHrVWRQPyo5iWjGkjw3eqMoxitiX71ZEvat4syZlu5GKreeR6VPIM4rPdSMcVomZyRaS6IznFTLcFuDiserEbfyreBhJGg3zjBrHu7QMCeeta8Z9fSiQAiuuKMXHscLd6aCOjdf89qxLjTgAeG/z+FehzxBhjnrWJeRAK3XtXVCVjlq09Tzu4tQm7rxWDeOIg3tjrXZ6ioG/8P6VwWrMR5n4f0rogzllAxbu8wG5XtXPz3wDNytJqMzKrnjt/SuUuLhizdK6qZx1ImzNqJ2EZXpXI6leNvyNv3f8alaZiD0rFvtzAnH8NdMTgqEK6o6fLlP8/jWpaaqfLPKdf8964iYOH6dqsW0xVCOOtVJXOdo9PW4EvUjj0rzbxTHjyMZ/i/pXU2V1ndkjtWH4kUP5Ptu6fhWbRlI+TNVvpIvLxjnPX8KwdK1iZPM4Tt/X3rb12zY+VhW/i/p7VxWnwn5+D2/rWtPqZ3P2a/ZO1KSb4i3qnb/yDZDx/wBdoa/eHwOS3h/Tye9pF/6AtfgR+yOuPiRe/wDYNk/9HQ1+/XgYA+HNO/684f8A0Ba76ZaVztARilyKZg0YNdRfKf/W/Zz48KD8KtVX/rh/6Pjr+bH9qS3RvGOu5J/5df8A0XFX9KXxv/e/DHU4+mfJ/wDR0dfzxftKaZ5vjDWl34z9m7f9M4vevPxMrGsFc+NPD9hC6w5J/i9PevWtH0yDZBy33vb+99Ki8M6LxAnm/wB7+H6+9e4aH4ezDA3nfxf3f9r614derqddOBT0HToAV5b/AFg9Pb2r3PwxYxDZyf8AXD+lUtF0HG0+b/y0H8P0969Z0XRcFT5nSQdvp715eIldHoUYHXaFboqDBP8ArP8ACvQbWJfLP1rG0uw8uLO/PzZ6fT3rpoBsTHvXlSZ6dOBpW0S/N+FdXAg5rHt4s55rorc5zWLZ6NKJchOM1dDk1RWrIfFCZ3RiWG6UKxpm7PFJjnNW3oaco8sc0BiKjJ7UgOKwbMpRJyxxTV5am05F+bdSuc80WE+9V+HkiqSDJFaEI6CqRlYs7RtqJlFWQvFNZc8Vp0HYz3UVWJxV6VNv5VnscGoZSRYiY/rV1WNZaNVpJPagtIv7jUyHFUfN9qnjfvQOxezkVGTikDZpSM0ENGfIo4rGkQHFb0nasqVMYqCDMKAU0oDVqm7aB2K+0U1xgVb2cZqvJxTsaxM+QZ/OoNoJq243UBO1FjZISNBtFWUUU6JMgCrAiwM5pGiiRFRsrNnQEmtZuKrSJkE1Ny7HN3Ma7se1Zk0YH5V0txDk5z2rHnTGR7UXE0YMqDn6VlzDH5VuyrwfpWLc8H8KpGTRlS/erIl7VpTyYfGO1ZMrbsVtEykUnGapSdqveXu71Vli6c1qibGYTmpFppTFMMm3jFbwZEomkjHA+lOZjiqMc/t2qV5vl6V1wZlKIyYkDPvWHfOdjfhV24nyMY71g3z5Rj9K2TMJxOZ1OVgX/D+lef6vK37z8P6V1mqvjzOPT+lef6q2RJ+H9K6abOSpE5XU3Jjf8P6Vy8gzkmtm+kxu49Kx2kyDxXfT2POqxKRUCqdwoYHPpV9jk1E6bhWykefOJy1zCnLZPArNUYFdVcWu9CN3Y9qwnsdhxuz+H/160jI5pItWczDd07Uay5Pl59/6VHaw53c+lUtZl8ry+M5z/SpbOaaPA9XiU+Xn3/pXCaZaxnfknt/WvRLwedt7YzWVpNp/rPm9O3196qD1MbH6ifsnwInxEvSM/wDIOk/9HQ1+9fgM/wDFPacP+nOH/wBAWvw8/Zc07y/iBeNvz/xL5O3/AE1i96/cbwOu3QrAelpF/wCgrXoUmbROzPWkpC3NJurrL1P/1/2r+MS7vhvqK/8AXH/0clfg/wDtAw48W6vz/wA+/wD6Ljr94fi8/wDxb3UB/wBcv/RyV+Hvx4h3+KdVbOM+R/6BHXj46dkdWHhc8M8JW+TbnP8Af/8AZq+gdBt8W0HP8X/s1eQ+F7bHkc/3v617voNvm3gGf4v/AGavmK1b3j2aVDQ7zSItoHP8f+Fd/YL8yn/aFcxpVjlR838fp9K7uwtdi43Z+b0riq1Lo7aNHU37VsRke9WhLjtTLaL5cZ71fWLjrXBOZ6cKJehuMZ4q3HLvzxjFV44uvNTbdtYuZ206diyHzU6tVJBmriDNCmb8ti0Din01etTIuTWnNcVyOnqtS+X707bUtGU5CqvSnkYpo4p2c8VDOWch8fUVq24zis2IYIrUt+1NMlM0EX5aR1+Un2pQ2FqKV/lPHatFI1SM2duv0rIlODWjNz+VZsi81VjRRIvM9qesvzDioGGKhJwc+lQaKBso/tV2NuKwI5s9quxSe3epuPkNxH4xUytWZHJx0qYS57UuYj2YrNWdKcYqdpPaqMknTikmQ6ZHRUO6jdWiRPKSt0qrIe1KzYqMnNXYoQDNSKnvSoM1dReKOU1iyGMYIFTNwKQ8NUbtWbNUJ1NRyLwanj5xTZuFNZspMpMvymsi5Xr9KvzyYyMdqxriXqcdqaRMmY92MZ/3a5e8OCf92ukuXyCfauavOT+FbRiZNnPTyfP07VRZqt3S/vB9KzXOK3UNDFllajk+bFUWn29qqPdZ/h/Wiw0WJRjFZVwcfnTmud3aq7tvqlIlkHnYPSrCSbu1VzFk5zUqLitlUMZMc/IrLvV/dt+FbB6VQulyjfhXXTdznkzzvVl5k/D+lee6sMCT8P6V6nqkOfMOfT+leca3DhJTn+7/AErvpI5ajPMdTbbv/D+lczLPgniug1obRL/wH+lcRO+C3HauyL0PPqIme6ww+X9auWs3mEDGOcVzBbLCtzS1+dP98f0oczknG52Fta+aPvY5x0qWfSfn/wBZ29P/AK9bOlRZUc/x/wCFdYlrvGd2PwqVVsYulc8gbT9n8ec+1cHr8X+q5/vf0r6Nm0zOPn/T/wCvXn2s6Fv8v970z/D9PeodYj6tc+UZLbpzWvo+nZ8z5/Tt9fevQ5fD23H77/x3/wCvTrCw8rf8+c47VtSqXM5YWx+lP7NFns8d3Z3Z/wBAk7f9NYq/Y/wj8uj2Y/6do/8A0Fa/IP8AZwbHji6/68X/APRsVfr/AOE+dHs/+vaP/wBBFezQdzGVPlOmLc0m6lK80m2u0g//0P2s+LCbvAGoL/1y/wDRqV+KXxzsN/inVDvx/qO3+xH71+3nxJge58GXtvHgM3l9enEimvya+MXhy+l8Q6iqvHz5Pc/3E9q+fzOXKrv+tz1cBHmZ8x+FtN+WD5/73b6+9e9+HrDEFuN/8Xp/tfWuf0Dw/eW6Rb2Q43dCff2r1jSdPmSGLJXg+/rXx9apd6H0lKFkdVpNrtUfN/H6fSupWHnOayLKBwnOOta6DavNcs5aHbSpq5dhjx371fWLI61kxuAw+taiOMVyyZ6EYIshM1Ig21AJFNSGRRWDubKBcVqtocVmowOcVfRCaE2DLynBqxGctVZUOasRoc1tBmE3oT0Um0jmnr1rp3OKbDbTlGDTwhNSrE2O1Zyi0YSYsfUVowjOKggtZGIII/z+FaUcDoBnH+fwrK44SQm35aglGAfpV4javNU55VVSD6VUdTqhJGVL/SqT9KtSTKAevSs2adD2PSug3iyCVtv5VmyS+3apLiRTyPSstzubioZukXY5eQMd61IZOOnesKIEc+9aEbgcn1rFsqxuI2anD4rIS6jHGDUwu4z2NZ8wNFpmqo75phuYz2NV2lWrjK5m4il80zzPaoS4FRbxW8DGSLZbim7qr+ap4pN4rYzZowtz+FakX9KxIZVB79K1YpkwOvT/AD3pMtCTHEhqAnJp0zAsWFVxKqtzXPKRvFaGlCPlBqpetgN+FSx3MYQHBrI1LUIUD5DdvT296jmHYyb642PjH8NYFxc5P3e3rVbWNTg83dhuE9B7+9c0dSglYbQ3PHb/ABrWLM5aG3JLuBGO1ZU65P4VIkqngVbSFpBlceldUEYSkjnZYvm61jXK7dv4120thMWzlelc5e6dN8vK9/X/AArdGd7nB3Eu3HFY0k/Tit680+b5eV7+tc3JbSLjJH+fwrORaHLL7VoW75PTtWOEIq5FKsfXPSsuYlmuzYWoGkx2qlJdxhehrPfUIVJyG6+1Fznmb4kyMYqOTlTWPDqELNwG6VpRzLKBtzzXp4bY5Z3Mu9i3K3PpXn2vwYil5/u/0r1OaJipxXD+IbZzBMcj+H+Yr1KSOWbPn7xDFgTc/wB3+leZXow7j2/pXrviOJl87P8As/0ryfUUPmSfT+ldFjlkjKtvmdR7iu00qDLKc/xj+lcTafI65/vCvRdDcMVA/wCeg/pXNUlYycD0LSbfKgZ/j/wrurKzzEfm7+lYOjxkgH/b/wAK9Bs4m8o/Wud1C4U+5SNjn+L9Kzr3R9+3950z2/8Ar13P2KVuhFTvYTP0I4/z6VKk2dMaaPn250Tbt/e+v8P/ANevOH07Z/H+n/16+m7zR7r5fmXv3P8AhXlsuh3fHzJ+Z/wrppTsyp4e6Pq79neLZ41ujnP+hP8A+jI6/Xzwf/yBrL/r2j/9BWvyo+AmmTxeMLlmZf8Ajzcd/wDnpH7V+rHhONhpNoD2to//AEFa+iwmp4mKioqx1R60lB44or0rnnn/0f3I8cKW8MXX/AP/AENa/Oj4n6eJNYvpSqnPldRz91K/RzxmufDVz/wD/wBDWvgX4kW5Oo3p4/5Z/wAl9q+bzx+5/Xme5lCvL+vI8TsrNERflXjPaussURYkGB1/rWdDbkIDxW3axkRL0/ya+Jmz6iMDZtyAh+tWN/FQW6HYfrT5PlOKwkzspQJY2+YfWtNCcVkQ9R9a14xlayZ2xiLvqwhLVDtqdPlrNmli/EvWtiJOtZMTDmtuIjmkZTLCxnNOKleamXBNOYDFXE5Z7FUsaVWyaVgKkjAz0rqgzmaLcSEkVfjhJwBioYANy/Stq1VSy5A71U9Uc1QbBAwx0qd1K1poibRwKqXO0buPSuZx1ME9TNlkwpBrIuphz16Vcu2OGx7VgXTNyMnpW8InVTkVpZ1569Kz3kBPemy7x37VSO7PWtLHVCRM5BqsyDNSDJp4GaiSOqDGRoan21JHHU5QYrmmza5Tp+6nleaTbXO5CYlFFFOMiWREZqMj0qYjFRkYrrhI52Q4wadtNKOtP2mtlMhIVODWhE2OT6VngYq0jUpTuaImlkHIqk7fNRK53Gq5bJrmlubrYt+ZiPPNctrNwAJOvb+lb7N+6rjdbY4l5/u/0pJAcXrF2BJjJ+5/jWBbXGZFGT94VPrDN5nX+D/Gsiy3eYuT/EK3gjGozvbQFyP96uusLUsnb71crpi5K5/vj+leiaZECnQfe/wrsgjimxn2Edwv5Vg3dgPl+Ve/avRFtd4yAKoXOnE7eF/z+FbdDNSseK3mng7flXv2rj7rTwNvC969rutKb5eE7/56Vxl9pjLt4Tv/AJ6VhM1jI8sltAMYC1hXjeTk/wC1jiu3vYPL29Oc9K4bVeAf9/8AxrOxTZzd1qJXIy3B/wA96pJdmRzy3rzVS8bLt/vGorbJc/SqSMpHWWeXPH92umsom2r+Ncvp52sCf7v+FdbYyKUX8a9PD7I5ZokuPkjOe1ef+I7lVhmHP8P9K7+95jbHtXmPiVHMc2D/AHf6V6lJnNNHjHia5VhOBnPy/wBK8ov5cvJ16f0r0nxFG6mYk/3f6V5ffEeY49v6V0NnO4mbCx3qc967jQ5SHTk/6wf0ribZdzrj+8K7jR4iHTp/rB/SuGswUD2nQpjheT/rB/SvS7N8xH615joMZ2D/AK6f4V6XYqfJP1rhkzSMDsYu9XVWqUXetJO9aU5m6gc/dwn5enevP5bMnHC16ncxg7eBXJNa+wqlNXO6MPdPpr4H2+PFlweP+PR//Rkdfpt4YXbplr/17p/6CK/OX4LQhfFNwcD/AI9X/wDQ46/R3w2f+JdbD/pgn8hX1mAldHyWYxNw9TSVIQM0YFekeXY//9L90fFvPhy4U/7H/oa18JfEcAahe8f88/5LX3b4s+Xw9cbv9j/0MV8LfEZkbUrwf9c/5LXy+eP3P68z6PIo3m/67Hk8QGwVpwf6sVBAilQoArZt402KpUZr4mbPs40hYWIQ/WpNpbk1cSJUX5lFNcL/AA1jJm8aZHCvI+ta8eAKy42UMPrWkrDFZtmiQFwOtNMo7ZqrIx45qNSW+6ai5bRtxS9etbkUvXrXMQkjOa2Yn680zCbOgWYZ705pMjgms+MkmrSK5NWjlmPBJ71bhRievamxwv6dq1baBs/d7e1bJ2OaRNBEfl6dK14ImAGDTreH7uVHT+la8ESgjKirTuctUrIkm3rVeeNyDk10Ajjx90flVS4VADwKqNO5xuRylzCxVulYdxAQcnHSupvJreNW3cYx2/8ArVzN7f2SKxLY+U9j/hW8aZtCRi3CAZOB0rHlZVPTtRe65pseQ0uPl9G/wrmbnxBpmeJj09G/wq3TOyEjfEq+9PE65AGa5JNaspT+7lJ7dG/wq3HeKZFw5xketYTgdMJnXRSD9athgawormP+93960UmTHWuKpE6FIssRTRjvTN6nvThz0rkkVcMCkI9KkytR5FJMTZE1RtUpGaaY3PQVvGRkQqMtVhRxUaxPuPFTgbetaqQkhhHpTlp+xm+6KPLcckU2ykirL941VY4NXJhjJNZ0jqCeai9zZEzOPLrjdab/AFv/AAH+ldHJcxKhBb+dcbrd5bqJSW/u9j7VpEmTOF1dh5v/AAD/ABqhpy5kT/fH9Kbq+oWvm/f/AIPQ+/tVfSr+1MifP/GOx9vauimjlqTPU9Ki6cD7/wDhXo+lwnZ2+9/hXnWkXtp8uW/jHY+1emaVd2jp8rfx+h9vauyCOKUzcVdoxT3iBxwKnEkGO35VN51s3TH5VpynM56nHXFtnHArjdTtgNnA7/0r0+ZYuOB+Vclqlvu8vao7+ntWMom8Jng+rR48vp3/AKV5xrETFTj+/wD416trsEjeV5a/3v6V59qEJ5DqPvf41lY3ueXXVu+5uR940ltCVfJx0rrLqCMDJQdfSsiSNQTtAHNaRQi/ZYzj/Zrp7LAC/jXERzbDwxFbNleruVS57+tdtFmckdXMm9CPWuG8RWZMEx4/h/mK7i0kWRVJOQc9apaxBHJbSYUHOOw9RXoU5HPOJ8r+KbZk8/p/D/SvF9UDLPKM9v6V9NeM7H9xclYxn5PT1WvnXWbd1uZht7f+y1u5mHKYulqzsv8Avj+lepaJZkunT/WD+ledaNGVkQMP+Wg/pXs2gxKdp2j/AFg/pXLUkUoHouhWbbR93/Wf4V6TZWZER4XrXM6FEpQYUf6z/CvQ7aICM8DrXBVdjeFMmWHHpVqJetSsoP3RT0Xy/v8AGaiFSx0qkV5YwccCsQWhPUCukZ42+7VVFRvugUKp7x2ez90+kPg/b7fE054/49W/9DSv0G8PcWFuP+mKfyFfB/wmiMfiOdmGP9Gb/wBDSvvPQhiwtz/0xT+Qr7LLJXR8ZmkbG7RRRXsnin//0/3P8Zf8i7c/8A/9DWvhP4g4/tO7z/0z/wDQVr7p8ZMf+Eduf+Af+hrXwZ8Q5QNVvBn/AJ5/+grXyWev3P68z6nh1Xm/67HB27AMMVrwP8yjPeuetX3OuD61sxNhlz618TKR94oaHQ5BHNVpcKDj0qL7QB3qGa4U9D2rK4mrCCTDDmryTHHWshCzMMetaKRvjpUNiJWIapYY+uBUewjoKuwAc1IpMmRMZ4rSiGM1VRetXowOapHNNmhGcGtGAgnn0rOQ4NWomIb8K0RzSZtRYz+FbFttz+FYEL579q17d8d+1W2Ys6GIjj6VpWxUyKD71hRyHjmrQuGjG9Dgj2rSlqzkqm/M6xoSOMVy2pan5W8b8Yx2+ntRdalN5LFn9Ow/wry/xN4iW1E5ebbt2/w5649q9SlRucMmWNf8RrBFKxmxjb/D9PavI/EHjyK2Vwbvb+6J/wBX9f8AZrhvHHj6OGG6VLvBGz/ln/u/7NfMXjL4iy/vCl5/ywP/ACz/AN7/AGa6VQKhI9s1n4nRq5/07+D/AJ5fX/Yrk/8AhZiSkAXuc8f6v/7GvjHW/iLfM5K3n8H/ADzHv/s1zln8Qr4yKGvP4h/yzH/xNU6J2RkfotonjX7QyAXOcyAfcx6f7Nes6Xq0twVfzMjeAePp7V+d/g7x3PJPCHus5uFH+rHqv+zX134Q8SC4gBM2f32Pu+y+1ctWkdEJH0Zb3QYjDd/St6CYMOvevN9N1DzMfPn5sdPp7V2tpNuA5715tWB0xkdCjZq2pxVK3BbpzzWokJOciuCcDVMiwaZtb0q/5OO1R7MdqhQHchEXtVhYT6U5QKtrtrWMRFMQHPSo3hx2rTwKgk2/rWiiKxWjjPp2p0i8dKlQgGiTGOKrkGYF9JsDDOMYrmbm82Fvm9O1b+qBsvj2/pXC6mzoHPTp/SpUNSrkF7qoXcPM9O3/ANauB13V8pL+8/u9vp7U/Vr8xGTc+MY7fT2ry/X9eiRZQ0uMbf4fp7V0U6dzCcyLWNWUMWMnRPT6+1Yun+Joop41M+PnH8PuPauF17xDFh9s3/LM/wAP19q83PihorlCJ8YIP3ff6V20qBxVKh9u6J4lgkC/v8/vAPun29q9V0fX4lQYm/j/ALv09q+DtA8dKhQPdY/eD+D6f7Ne4eH/ABpDPGMXOf3mPufT/ZrthQZxTqH1lF4gDrnzu/8Ad/8ArVeh1YtnEn6f/WrwCHxM2393Pxn+7/8AWrqLTxC3zZm9P4f/AK1aOlYxvc9jN8X6Nn8Kz712bb+NchDrgbOJf/Hf/rVfm1F3xh8/h/8AWrnnTOmmzitSgLbMj1/pXnOqQgM2R/Gf616VfM/y7j615trEmGfn/lof61zuJ1xOSu4gR071iTQkdB3rbmlByCe9U2CvQkVY5ecmMk9Oabb3WyYfN+ntV+/t/lyB/FWCwaOXPTFdMHYiSPQtOv18tMv69vr7Vo3Uwlt2wc5x/OuEsbl12jPr2rpYpi8ABOc/410wkYSRwPiyDzLe4AGc7P5ivnjXbBhdznZ29f8AZHvX03rsIlSUYznb/SvFdfsV+0z/AC/w+v8As/WtuczseTWimGdAePmB/WvW/DU28KM5/ej+leZ3Nv5dwuBjoevvXc+F5tpQE/8ALYf0rKTNYxPozw5Dug3Y/wCWn9BXoVvCSh471wHhaaNoQM9Zf6CvT7ZV2H61x1UdNOBFsIpZTnFTy4XGKpSN05rl2OyMCOPvT7dRzgVDGTzU9sy/Nz6VlGfvI6XD3T6t+F8Z/t+bj/l3b/0NK+6dEU/2bbf9cU/9BFfDXwtb/ioJv+vdv/Q0r7o0U5063/64p/IV91lLufCZutUa4ooor3jwj//U/crxp/yLlz/wD/0Na+BPiMG/ta8I/wCmf/oK19+eM+fDlz/wD/0Na+C/iIo/tO8yP+ef/oK18fn+kP68z6zhv4/68jzew+8mfetjcFPXpWRaYDr+NXnYknFfDzZ+gJaEr3DbgAacrl+tUSrlxwfyq/CjEZwetQYT3L9rHuI4/iroYoBt6Vj2gUEZ4+aujiKFeo6+tJkFU257CrEVuRnirgQHoKtJGOwpWM5SKix47VYUYqQxnsKYxIqkjmmyYOB1NTRzLnk1ltJx1pnnFeQ1aI5ps6eK4Qd+1aUV5Gv8Xb0/+tXGJcSdjU32qUDhv5U5IxbO5XUogB8/6f8A1qH1e3RSZJMD6H/CuDN5cdm/QVm6jf3SWrsH547D1FdOHTuc1Rm74i8X6fZWsx+0bdu3+AnqR/smvk34l/FS1tlvdl/t2+X/AMsieu3/AGK6Hxzq2o/ZbrZJ/c7D1X2r4d+KOpaq/wBuyxP+q/hH+x7V7+HjocckZXjn4wJLNdRjUc52f8sf93/YrxDVfiGmoPsN5v3Js/1eOuePu+9eZeLbzUjeXG4n+D+Eei+1cKt1diVSxwQR2FdypiietXF3Fcgndu4x0xWahWKRcccg1h6feSPH+8cfe9vatFpQXGGBpSgdUWeqeEtREVzD8+P36np7r7V9j+A9bBiUeb1uB/D/ALvtXwl4beX7TDj/AJ7L/MV9Z+BJ3AjG7/l4H/stcdWKsbxZ9l6HqO8r8/8Ay0Hb6e1eqabOGAyf4v8ACvBfDkkjbOf+Wo/pXtGkmTAz/f8A8K8mtFHTFnpmnBXUd/m/wroVhx2rndIDbBkfx/4V1aY71584m6ZAyr6VUYAdatuw45qg7r3IpKBoJuqZW96qZFShvQ1agBZ8w+tQSN796XcPWq8jDue9acgyVGOac5OKhiYbuvapmwRV8gGXeQh42bGc4rhNatsRysB/d7/SvRZgChFcjrUa+RLx/d/mKFT1IkfOPjC5ktvtBDbduztnrtr5i8Z+JpbdrkefjGz+H/d9q+mviBE2y7KKT/q//Za+I/iQ88Ut7nIx5fUf7td1Glc46srHIa3422sUe55Mf9z6/wCzXCyeK9zhhcdP9j/61cB4r1G6ivAFfC+Vk8D1PtXIxavK6585T+VepRw5wVZHt8Xjx7ORf9L24Ib/AFef/Za9K8M/FxIVUSahj96D/qvp/sV8XarqtyrEpKM7PQe9ZVj4m1aBlAnC/MDyq/4V6MMPoccpH6r6L8WtOmtWeXUMneR/qj6D/Yr1Cx+I+mybtt5nGP8Almf/AImvyg0XxrrC2rAXij5z2T0HtX0b4c8T6jP5265Vsbey+/tXPUp2ZUWfobpnjOCbfi5zjH8B9/8AZr0i28QWkm7dLnH+yf8ACvjnw5qF6/nZb+72HvXsdtqNyu795jp2FcNWB2U12PXNX1OzHl+W/r2Pt7V5jq19E7Nhs/Oe319qq6jq1y2z96D19PauSur2d2bc+fmPpXHJHZFFq4ulGSG7+lV1vl/vfp/9asW5uH2/e7+1Zv2tgxy4/SsymjpLi6jkXBbPPpWHcSIZDg1W+1N3cfpVOSZ2lJByKuJlM37I5ZQPeuzsYGeBeOuf51xOlbneMdev9a9Q0m2ZreMlD37H1NbRkYyOU1eyIjkbb6d/p714p4ijCXVwCOi/+yivpLW7MizlIjOfl9fUV87+KoZVvbr5SMJ6f7ArVSJR5FeKplB9q09Hn8iRADj94D/Ksy6zv59KdZM/nJt/vCk2bxR9GeEtRJjXL/8ALYdv932r2iyvFaInd39K+cvCcrpEN5wfO7/hXtOm3DGA/MPve3oKxmjqpI7GeUcYNVfvVE7sepq3EhbPFcM2dsURJEecinW0R+bIq+sLf3TToIG5yp/KuSMveOmS90+nPhfka/N/17t/6GlfdGiH/iW23/XFP5Cvhz4YpjXpsj/l3b/0NK+4dFB/s63x/wA8k/kK+9yhn5/nG6N4bcUvy0wdKWvojwD/1f3M8Y/8i9c/8A/9DWvhH4iJnUrw/wDXP/0Fa+7/ABf/AMi/cf8AAP8A0Na+GfiFzqV4P+uf8lr4/iD4P68z63hz4/68jyeEEMKshvnH1ojiLEEA08wkScg9a+Eluffp6FxBuNX4kwv41Si+Xr61oxuCOop20OeciWNeR9a17cfIcetZsS7mGPWty2gbYeD1oSMXKxrwRk54NaEUHXg062hPzcHtWwkHXrVWOeczGaL2NZsqHiulliHHWsiWLp1ppHNKRgGE46GkNuSOhraFvnsau29j5jYIbp2qkjFyMWG1fA+VunpTzaOf4W/Ku1ttKHHD9P8APar39jqR0f8Az+FaJGLlc87NpJj7rflWfeae80TRlX5x0Feqf2MuOj/5/Cq76MmTw/8An8K6abszKTPmLxZ4Wae1uMRzHOzoPce1fHvxL8EzEXuIbg/6v+E/7P8As1+pt/4bjuLdwRLzjp9fpXg/jvwFHOl1hLg52dB/u/7NerQqGMlc/Fvxp4NuIri5byLjjZ1U+i/7NeQ3+gT27/6qUYXPKn/Cv0/+IHw1H+lusV1/yz/h/wB3/Zr5l8UfD6SJ22w3P+qJ5X6/7NehCqZqOp8o20MsS4Kkc55FaEIlaVcKeo7V6Jd+EJ4mwIZ+meVP/wATS2HhO4d1Jhn+8P4T/wDE0SqI6Uh/hiCVpohsb/XL29xX1f4G0+YmJtj8XC9j/s15Z4R8HSmeHMU/+vX+H3X/AGa+xvAvg4rEpMc4/wBIHb/d/wBmuOpK5rE73wtYSNsyj/64dvpXuGmWDKASrff9PpWP4e8O/Z9uUlH70HkfT2r1SzsFUY+br/ntXnVVc3iiTTIiidD97/Ct8jNMtrUKvQ9atsgXrXHKBqjGlJGKx5ZAMcite4OMVy1zKRt6UI2TLwucdxUguQO4rmzdEelJ9rPtWqKudMLoE4yKViGGc1zsNwS3bpWks/yjkVoilI0ozg1Oz4XtWbHOCeoqYsGFA7kssp8s9K5bV3LwyL64/pW/MwEJ5/zmucu/nLL64qomU2eKeMLJporg7WOdnQf7tfE/xV0d8352Sf8ALLt/ue1fojrOmieGThucdPqK+XfiZ4XM63pCTHPl9B/u+1ejhjgqs/Lvx5ZyW9wRtYf6Pnke7V5DBM0fy8de9fY3xM8FOZnfyrji1P8AD7t/s18xXXhiWGdV8qboDyvv9K9yhJWPPqnI3zPI2QM/L2rFMcpcfKfyr02PwxJN/wAs5uuOB/8AWrTtvAcs0i/ubn7wHC//AGNdimkcclqcFpqXKwEKhPzeh9BX1V4KsruX7TmJ+NnRT/tVx2l/DiT7Of3F197+77D/AGa+wPAfw/2/a90dyP8AV9V/3v8AZriryuaQiejeGNFuP3+YpP4f4T7+1ekPYSR4yjjPqK9H8P8AhCCLzuJudvXHv/s1e1PQUTZgSc5/p7V5FWR6VGJ4jfeYu3A9awpt/Jx3r0i/0cHZlX7/ANPaubutKCgnD9f89q5Hqd8VY4qYMw5Hesh4W3k4PWuyksTkjDdaqtppPO1/y/8ArVm0KRyzxsEHBpI1bI4NdK+n5GCGqubEIc/NU3sYSNDQYybiIHP8X8jXuWg2nmWsQwed3T6mvH9ChC3MXX+L+Rr3/wAKw74oF553f1p8xjIytb0tjYSsFc/d7e49q+a/GOmyC5vTsf8A1fp/sD2r7kvNG+0aew2uc46D3+lfPPjnw2Ulvzsl4iPb/pn9K0iyYnw/qNuUkwQR8vf8aj01cTIf9sf0rqPE1l9muMYYfus8/U1zWmnMif74/pW8TeJ6posu0qOP9YP6V61pM/8Aozcj7x/kK8W0+Ta69Pvj+leo6LPm1Ykj75/kKVRHRTZ6nGN+a37aE/Nwe1ZFkofd+FdXFGFzXm1UdkZCxxdeDT4o8561biA5p0SjnFeaviOuT90+gvhsuNcl/wCuDf8AoS19t6J/yDrf/rin8hXxX8N1/wCJ5L/1wb/0Ja+1dF/5B9v/ANck/kK/QcmPz/ON0bFFGDS4NfSngH//1v3O8XjPh+4/4B/6GtfDXj9c6tdj/rn/AOgrX3P4u/5F64/4B/6GtfEPjpc6tdf8A/8AQVr5DiD4P68z6vhz4/68jgLK23BTz3qWe3CyE88VoWCYRAfei7GHfHp/SvhJLU+8b0OdmOxvwp9vKSQOOtQXh+fj0pLLJdeP4hTRyTmdlp0BkxwfvY4/CuztbA+Wflbr6Vi6HFuC5z/rB/SvS7O2Tyj161SRzymZsVqVzwaubNvStRoMdM1UdAMVSRyzmZkiZxWa8GcYBrdKDvVfyvrVqJzSmZ8dsS3Q1s2VrtfPP3akii+boelbFpCN3OelVymTkXLW3HHXpWgIQB3qa3iTA57VLIoA4qrEcxRcAKRWfM6pk5FXJywVjisS4JYlSKpOwXLyTI8e0sPzrndX0uG+SQEsd2Pu47Y9qsjehwBV2JiQM10Qq2HY8A8W+AoLyK4+W4O7Z90Dtt/2a8C8T/CiKYORHeH9yRwPr/sV95XsAlRhzzjpXKahpCTK2Q/Kkcfj7V0RxAcp+ZeofB8GT/U3v3f7v1/2KjsfhCqEZhvR82eV/wDsK/QC78LRu+QJenp/9aqf/CLogyFl9en/ANatvamiPljw18MY4Joj5d2MTKeR9P8AYr6R8N+EobNBkTDEu75se3+zXSWOkCAgkOMNnn/9VdOhES7VrGVU0iJDYxRD5Seuef8A9VaEWFI571TWU9OKkD9xXLOqao3opF2HJFQzyg4wRWYszAY4pGkY1g6hqmVLlvu4rkrsn5fxrp5j0xXM3QI25HrQpFIwncjFQeYamk28c1TYitEyzVtmOfwq+zkIDWZbN/KtByPLFXzFBHcEMela8M24DJHSuZzhzWlDIQBj0pc4F28mIRgMdqwWlJk5xWpP80JY/wCeaw5WCsea0izKbJpFSVCpPX0rzvxT4ehvY5yfMO7b93HbHtXcCbDdqjuGjliYFhk+hrtoyOKqfHvjv4dx3YlZUuT/AKOw+Uf73+zXy7rPws23AIhvPuf3fc/7FfpZr0I2uq5IMR/rXiet2S7yTu/1f+NetSmcNQ+ONM+GWXUGK75cfw/T/Zr1DRvhRG7p+6vP9YP4fp/sV63psCJKgbI+cdfwr1nQUiJTa2f3g7/St3VOVo8l034R24gO6O8Hzeg9B/sV7foXgy20/wA3/XDft+9jtn/ZHrXf2iL5Zwe9NvL/AMnbgrznr/8ArrmqVdDqpRNuzkt7fdhxzjqRWbqE8cuzDA4z0P0riG15x1Mf+fxq1DfGfPK8eleTWranpUokN/bBtmM965u708uPut19K7+W3WTHXj0qFrBGH8X+fwrnVU7OU8sbSCzH5X6+n/1qSTRwqAkP/n8K9SXS0zn5v8/hWbqFmI48jd97/GtFO5hM8kvLMRDPP3sc1g3K7d34V2urIRkHIG//ABrj71OWx7VjOWpg2WNHf/So/wAf5GvojwQok+yr67+n/Aq+b9LyLuM/X+Rr6M+H8nz2gOP+Wn/s1EZGMj3/AE/Skns04fnPT6n2ryjx74bUjUW2y/6lu3/TP6V7/wCHED20Oeh3c/ia5bxxZxNFqJyf9Q3/AKLrogRc/KT4kaX9lvDhX4ts8j3avHNPk2SJnA+cf0r6e+L9iVu3KBjizPb3evlUEwyqH45B5rsgjWMrHolreKsijK/eHevStDuwbRuV++f5CvBob5ftCAMv3h/OvUdCuv8ARG6ffP8AIU5o2hM+mtLnB38jt/Wuu88DuK8z0i4/1mSO39a7Dzi33cGvMrROyMjooLjOeRVmCQHPIrnbeUrnfgfWtG2l+907V5aXvHXJ+6fUPw4Odcl/64N/6Etfaei/8g+3/wCuSfyFfFXw2ydcl/64N/6Etfaui8afb5/55J/IV+gZMfBZu9TcHSikBGKXIr6Q8G5//9f9z/Fv/IBuP+Af+hrXxP44H/E3uj/uf+grX2x4t/5ANx/wD/0Na+KfHA/4mt0f9z/0Fa+R4g+D+vM+s4c+P+vI5G1bCL+NMumyX+n9KrxthRVeZss1fCPc+4ktDHuxmUfSrenxZdef4xTSm6QV0WmW+SvP8Y/pVxRwVXY7DQ48Bef+Wg/pXpNmv7o/WuQ0eDao5/j/AMK7i3GEI96tI451CdlrLkj6c1vNVFlqrHJKRktH71EExWjIvSoVWtLGTdySBfn/AArZt0569qpwphvwrXtxzj2q0gsXoUxj6U9lqWL+lPZqGiTJnTKkVjTRYc8100oypNZNwMZNQxmI425piy7T0p1033vwrLJy9Tcs1TJuHSq8q5B+lOgGQKuBMqacZu5RhNBkdaqSW/BGe1dA421RmfH5V1+00GjnpLftmqrW+B1rdZ88YqIrkZrCc7lp2MNYM96sLDgda0CmBnNQlsHFc02zWLK/le9IExVxeRmkZawd7miZitH71gXgzt/GuyuIsY5rmLmP7vPrXTFaGqZxEwxiqlbFzF93n1rL8v3rVIu5ZtpcNjHatX76CsS3i/ek57V0MCcAe1MpMo+T8xOauRjaB9Kv+VwDms644/OkFx80uISMf5zXO3EmZDxVy4f5CKyJfmJraLMJjJZ9oPFZ0l9tYjb+v/1qW6XCN+FcpevtduPSuyicdUv6pfbkf5f4D3+teS63Nukzj+D/ABrpdQm4Ix/D/jXA6o3J/wBz/GvTpHn1WZiT7JVOO4rvPD+p7NvyZ/eDv9PavIrhtsg+lamlXOwqMfxjv9K1ZzN6n1Jp+rboSfL/AIvX2+lY+oXu/Z8uMZ7/AErziw1HZCRszz6/StI3Xmfw4x71yVbnVSkQyy5xxXT6W33/AMP61yDjNdXpa/f/AA/rXjV2z1aLPRII9+ecYq4tvnvTdNX7/wCH9a2lTjNc0ZHb0M0Q4GM1z+rR/u+v8f8AjXZ45xWZfW29PvY+auqEjnqI8Q1iLeGXOPn/AMa5C8ttqtz6V7DqNjtZm3fxnt9feuO1S1xHId3p2+lEtTnaOH09Nt2nPr/KvePAj4ntR/v/AMmrxMDy7n1x/hXqfgm4xeWox/f/AJNTgjGaPtHwn+8srdemd/8AM1j+MrPMV+d3/LFu3+xWh4ElzaWpx/f/AJtWx4nj8y3vDnGYm/8AQK7KaOdux+Z3xdtNk0p3Z/0Nu3+/718Uay3l3A7/ACZ/U1+hvxktcNOd3/Li3b/f96/Orxp+5u8df3Of1au2milIoWtz/pMfy/xD+dev6FdZtG+X+M9/YV82Wd3/AKXF8v8AGvf3+le16BcZs24/jP8AIVc43RtCR9VaTL/rOPT+td7avnd+FeRaPP8A6zj0/rXplhJu38eleZWR2RZ0Lpmrtp/F+FVVq9bL978K8lr3jv3iz6k+Grf8T2X/AK4N/wChLX2po5zp1v8A9ck/kK+Kfhr/AMh2X/rg3/oS19qaMP8AiX25/wCmSfyFfe5NofC5utTaHSim7aNtfSHg2P/Q/czxZ/yAbj/gH/oQr4t8cf8AIUuv+Af+grX2n4s40K4/4B/6EK+KvHH/ACFrr/gH/oK18jxD8H9eZ9fw2ry/ryOEUZFV5V+Y1fhGVFQyr85r4WR9zKOhWgTLrz3FdrpUGQOf4/8ACuTg/wBYv1Fd/oi5QH/b/wAKuJ5eJ0Ox0yHCdf4v8K6NBgYqlpqfu+v8X+FbW2tEeZKRCzVUlfGKtOMVmzHGKtI52yN3zTkGagq7EM5rVAkW4zhquxNg/hVUDFOU84q7GltDXWTAHFIZeelUQ3FQluTSaIcTSaXI6Vn3T5RuPSlDcVXlOcis5E2MmbnNQIuWFW5+M1UU4aoaGmaUPygVPuqgr4HSmvJjnFZtWGmT3LcH6Vz1w3zfhV2Wbd27VTPJzSU2xogiXJH1rTihzxnvTYV6H3rUi/rWsddDRMpyW3ynntWNNBhwM12QXKmqE8Xz9e1bxpXKUjFt4Mr171O8OO9aSrsQis67k27ePWtFhilIwrqXG3j1rCb5qbcz/d49ahgbdmp9lYv2hRuYPu8+tYRix3rrroY2/jXOuM1XINTuTW8GQDntWisGAOar2zZwPatuOPKjntR7MtTM/ZgdazLmLdnnvXS+VzjNQSQe/ek6ZSmcjLB+7PNZU0W3PNdncR7VPNc9dJyx+lSkN6o4/UW2xP8Ah/SvPdUmxI/Hp/SvSNUjzFJz6f0rzfVIcyPz6f0rronFWRzFzJvOcdqwbxNwJz/DXRzQ4BOegrl9Sk2Z4/g/xr1qJ59Q5HUl2En/AGf8a5l77yG+7nHPX/61a+oz7iRj+H/GuLvl3kn/AGa6HE42zpoNd+T/AFXf+9/9auvsdY3bv3fp3/8ArV4cw2HFdXp0uN/Hp/WsakNDanI93trnzd3y4xjvXpGkx7vM59P6149pD58z8P617boy/wCs/D+teHiIHsYeVz0bS4vv8+n9a1ZI8IDms21fbu/CtQtujFcKR6UTGkk2uRjvSs+UHFJMMuw9zTXX92K6IozmjmdS5BH+1/jXD6uv7uT8P6V296PmYf7RrkNXX93J+H9KtowcTzW8+Wdvw/lXaeCpsalbDH9/+TVx2ojEj/h/Sui8GH/ia2w/3/8A0FquMTmqo+7fh389lZ9s+Z/Nq7vW7XdaXJ3f8s27f7NcD8Nzt0+yP/XT+bV6VqkubK4GP+Wbf+g1100cUj4W+MNjxcHd/wAuL9v9+vzE+J0HlXZ5z/ouf1ev1Z+Lg3Lcf9eT/wDs9fl38W1xdt/15n+b12wRnzHzlaTbbmM46MP5165oeoYtG+T+M9/Ye1eJxnE6fUfzr0DSJMWzDH8R/kKtnTRdz688P32/zvlx93v9favetHTd5n4f1r5X8MTZ8/j+7/Wvqzw6c+d/wH+tebWR6VM7QW+O9FuMZq474rOgbrXjP4j0be6fUHw1/wCQ7L/1wb/0Ja+1tF/5B9v/ANck/kK+H/hq3/E9l/64N/6Etfbmhv8A8S+3H/TFP5CvvMmPhs4WqNyiiivozwLH/9H9yvF/GgXH/AP/AENa+KPG/wDyFbr/AIB/6CtfbHi//kA3H/AP/Q1r4i8cuBq90P8Ac/8AQVr5DiJ+5/Xmfa8LfF/XkcjCQFFMlYbjVeOXgdajkl+c9a+DvqfeVdi1EcyL9RXe6H0X/roP6V55bvmRf94V6Boh+7j/AJ6D+ldCeh8/itT1PT/9Uf8Ae/wrSIzWXpv+q5/vf4VrEjNNM8moRydqw7v+H8a2JDjFYFy/3fxrZMxi9SurCtiJhzXO7614nPNaJnVA0Qc1YjHeqqnJq2AQoNUmbElJuFNyaa1KTMajJNwqKZh5RpuTUUmWUisbnNuysSCKjYgCpNpqCQEZqmbQiMZxiomkGCKgmcjNUWmO4cmsZM05SeRhmli/rVZpAWHWrMJBH41CQOJeTqPrWjGwCE1k79pqUXACEc10U0Ztl7z0BwQa0bZw6cetcq0pLjBNadtceUhLE8HNd9JEORe1JCEc/wCwf615/fyKuzPvWt4g12KGKT/Wf6onj8fevD9a8Wxp5WGm/i7/AE/2q7VEh1LHULMnv/n8a2bWZTu69q+f28dWydTP+n/xVWIPiRZR5z9p5+n/AMVSlTH7dHvtx82MVgPA5xyK85X4laa3UXP6f/F1cT4g6U38E/5L/wDFVl7MSxCO7ggdHJOOldHb3CRKNwPAxXla+PdJYALHNn6L/wDFVWl8c2X8InHPt/8AFVapGkcQj2FrhH4ANKIWk5GPWvI7bxpau3/Lbp7f/FV3uka/b3O0Yk+4Dzj296mVI1jVubUqmMFW7Vy2pyqGf8P6V2P2iCeLcF6+oFczqsKv5hUAdP6VzyhY3U7nDX8qmJwM9q8/1KNnncjvj+Qr0W/gIjc8dq4PUSscz5HTH8hV0yZ6o5ueJkjbPoa8+19wu4H/AJ5n+tejXUqNG2B/Ca8w8RElmx/zyP8AWvToHl1zzi5O5+PSse8U7W/3TWhdPsbn0rBv72NQw5+7/jXcjzpGHO4VwD6Vp2M6Ddwe1c5NdIzZwelaNm+d2PasqkS4Sse7aDcI3m4B/h/rX0Nosynzev8AD/WvmDQptnm5z/D/AFr6D0S/j/e/e/h/rXl16Z6tCZ7HFKvNSNKuKwba9R92M9qvCdSO9eZKnY9WnUJXlXNVpZk29+v+e9V5ZwOeetZc92AO/WpUWbc6ZHfTKV7/AHq5DVZVMcn4f0rVurxTnOetc5qM6tG+M9v6VtFGcmcJqbjzX/D+ldB4MlUarbf8D/8AQWrnNQwZHP0/pW94PIGq2/8AwP8A9Bat4HJVZ91/DWVTZWQ5/wCWn82rvtbYGK4/3D/6DXmvw4bFlZ4/6afzavQtVbMU/wDuH+VdUDgqHyv8Th+4uD/05v8AyevzG+MHF05/6cz/ADev1A+JiZt7g/8ATm/8nr8v/jN8t2//AF5H+b11IxPkWdx9pT8P513GiMPsrf75/kK84uZcXade3867PR7nFs3X7x/kKp7GsD6o8MuP3/8AwH+tfUnh1x++/wCA/wBa+Q/DV0P3+M/w/wBa+o/D12P33X+H+tebWPVoM9j3ioYGHNUI7jdnrVq2/i/CvG+2ezFrlPpz4a/8h2X/AK4N/wChLX21ogzp9v8A9cU/kK+Kvhqv/E9l/wCuDf8AoS19taIv/Evt/wDrin8hX3uTHwecvY2h0paUKcUu019Hc+duf//S/crxd/yALj/gH/oa18NePSf7au/+2f8A6Ctfcvi7/kAXH/AP/Q1r4b8eDOtXf/AP/QVr43iOXuf15n2fDLtJ/wBdjhIidoprgl6tW6AgdKlaIbugr4By1PuaktCC2Uh1/wB4V3+iZAX/AK6D+lcfBF+8XgdRXaaYNjKP9sf0reM9DxcQj03TW/dH/e/wrSaQZrEsG/dHH96rrOc1opHl1ETSyYxmsK4OcVoyP0rMk5xmtYyMFHUoDJrWhyc1nAYrVhXrVc5vE0E61fUgqBWevWrIYgCnGZTZMcU1ulR7qN1OUjGTuLSYFIWppbAzWaYQjdiOAM8VQnZRmppZcZ61j3M/Lde1Xc76dMhuG61nO1E02c8mqnmZYDmsZGzpliNssPrWvAMpn3rLhjyw+tdBbxfIenWnE55RKcpI/KqqyneASetaF0mM/SscnEgrrpROSozYITymkA6A15h4x8T/ANkxSgPMuIGf5Dj+97jniu/uZ/L0+dsnhGPH0r4s+N/ieWzadUlmX/QGPytj/np716dGBw1Kljj/AB58WbtDIsd1fLm3PRyP73+3XzFrvxW1V/K2318Pvf8ALVvb/bryfxj4xu55iPtFxzDjlz/tf7VeJ6rr923l/vpe/wDEfb3r0IQOaVXqev3XxJ8SDbjU77v/AMtn/wDiq5Wb4neKhjGq34/7byf/ABdeSPfXb4zK/wD30aai3EnV849Sa1dE5J12j1A/FTxgOmsaj/4ESf8AxdXIvix4x5/4nOo/+BEn/wAXXkrwSjGTVYNIv8R/OoVA5Hi2fRNh8XPE4wJNV1E/L/z3f/4ut6H4x6wvEmoageP+erH/ANnr5hV7lFDiQjPoTWJdavcQswMsnDEcMf8AGt44c2pYptn3lofxiuy48y7v2/d95D7f7dfTPgb4qicxhprw/wCjg8t/u/7dfknpPiWSIgtJN9zHB+nvX0P4G8erDKoaS44twOD/ALv+1Snhz1aNa5+tGgeNheW8TCSf5t33j6E/7VdpDqRu0B3Od394+n418IeAvHS3C2iiS458zqf97/ar608F6ot/DbHLnfv+97bvevMrU7M9CnUO7uYWkgY8c46/WvOdct3WSU8fw/0r3GCyWawDbV59R715v4nshHJPwvG3p+FYRVmbN3R4/es0eVJ6rXC61hlcn/nmf616Lq0WGJGPuf415nrr7Vcf9Mz/AFrvoM4Kx5JrswhLdR+7J4/GvLtT1baxG5/u/wCPvXe+JJSd/J/1R/rXiWsyurnk/c9frXoRPPmiy+qFjkM/5/8A167PS7wNvyW7f1rxxbrA5JrrdO1QLv5ft/Wm0ZJ6n0Tp14V34LDp/WvW9I1WRfM+d+3f6+9fPmj3wk8zJY4x1/GvZdLkHz/h/WuKrC53UZntdhqrnf8AO/bv/wDXroodQZgPmfp615fZ3YXdye1dVZ3YIHX7tcE6R6UKh0FzfsB95uvrWBc6i/PzP19aLq4G3v1rnrm4HPXrWDhY6FUJJ79yT8zdfX/69Zd1dO0bfM3bvUYlDuRzUNwyhDxUNFqehz19M5ZvmPbvXQeEJX/tW35P8ff/AGWrmb11y3HpW/4QkX+1rf8A4H/6C1VEwmz7q+GjubSyyT/y0/m9epal/qZv9w/yryn4ZSKbSyAH/PX+b16jqbfuZv8AcP8AKuqmzlmj5r+JuBbXP/Xm/wDJ6/LX41OBdSf9eJ/nJX6f/E+TFtc9f+PN/wCT1+V/xrlP2uTk/wDHif5yV2wVzFo+O7yUfaV69B/Ouh0q5K27DJ+9/QVyN1Jm4Uc9B/Oug00nyD/vf0FOorF00fTvhe5J8/k/w/1r6p8OyN++5P8AD/WvkrwmCftH/AP619beHV/13/Af615dU9Oij1u3DNnmuitIT83TtWZZQ53dO1dVbQj5uB2ryWvePWT90+jPhtHjXJen+ob/ANCWvtLRxt0+3/65J/IV8d/DmPGty9P9Q3/oS19iaSf9AgH/AEyX+Qr7rJ9D4POHsbQ6UtMAOKXBr6K58+f/0/3M8Xf8i9cf8A/9DWvh3x0jHWboj/Y/9BWvuLxd/wAi9cf8A/8AQ1r4k8cFf7Wus/7H/oK18ZxJ8H9eZ9dw27Sf9djk9PiyiZUHr/WrMsWJThRS6dtKJj3/AK1clQGQnFfnz3PuG7kEMXzDgda6fT1xjcP4v8Kwo9qsPrW3azKBkHvWy2OKrC52llIAmCf4qvvIuetczb3YVfvd/SrDXuT979KuLPPnSNBpf9o1C5zjFUBcg9W/SrKSK3U1qmc/syQD1q6j4zzVPcO1IJcdTTuXyG2ki55NTeYPWsIXWP4v0qUXY/vfp/8AWoUjNo2N49aUOM9ayBdZ/i/Sni6A/i/SiUjOUWbAYUMVIwKzFusnG79KmWYHqaSkVCNmVrskFse1Y8rDBzWxcYcEisK73IG/CtbnoU2Zl1Io3AH0qish3jnvUN3O29hn0qtHN84ye9QzdyVjsNPIYDdz83+FdZbIDEeB1ridPlxgA/xf4V3mnYeA55+b+gqoHDORWliB6qDxXNaknl3C7BgbR0+prtJ4sHgdq5HWwIt0rcBYyc/TNd9GJwVZHGa/qKW1nOrSFf3LHjPofSvzw/aC1cSTT+TM3/INYdWHOZK+rviT4xttPSaMXOz/AEVm+4T/AHv9k+lfnR8WfF9vqU0mbjfmzKfcI7vx90etexQgeZVkfImt3VxJON0jH5O5Pqa5lwZMbucetbuqT2xkyT/D7+9ZEU1mc5P869SlTOKbEltiuMKP0pkYIzWtcXFjxg/zrGN1aDo36Gun2Zx1GEr9Oaqgr3qVprdu/wDOqpmtx1P86apHDO9y8kUrc447VzWqQEAnaPv/AONdXHqGnrGoL8gDsf8ACsTULixlB2nPzZ6H3rpjRNqLszkBNJC5yxA6da7fQtcFu4P2h1/d44Le3pXFXYg52f3veqkV00Lna2O3SpnS0PXo1D7d+F3iIyXFiv2qQ583u3o9fo78Jrxri208iQtnzepPq/rX49/CzXZI9SsYzLgDzeNvs/tX6nfBHWFkstMLSZz53b3k9q8PEw95np0Z3PunS45G01D16/zNcV4mg/eT7lH8Pp7V1Gi6nAdMiBf+92P94+1c14kuYpDMQ2c7f6V50lZncndHjHiONULbQB+6PT8a8T11/vAn/lmf617n4i2srkf88j/WvB/EGQzf9c/8a6qJzVtjxvxHzux/zyP9a8S1zIY5/wCef+Ne1eIWA3ZP/LI/1rw/xBMoLc/8sz/WvTgro82ZwdxMUcAMRxWzp1w3z5c9vX3ritQvNkwG7+H09zWhY6jt3fP6dv8A61VJGN9T6a0C4T9783931969z0mdW8zDen9a+T9G8QJH5mZcZx/D9favc9C8RRt5v77+7/D9fauecDeEz3qFuuDWvbTsv8R6e9cLbaxE+7En6f8A1q14dSTjD9vT/wCtXJOmdkKh1ktyu0bmP61hXd1Fz838XvWbc6qAv+s7+n/1q5q51XcxHmd/T/61ck4HXGZ0aXKmQ4Y/rTppgYT81chFqJDk7/0/+tVptQBj+/8Ap/8AWrFxNeYh1CYh3+Y9q6fwVMh1W2yf7/8A6C1eeajfDLnd6dvpXQ+Cr7Or2w3/AN/t/st7VJNz9DPhk6m3sQp/56/zevW9T/49Jz/0zb+VeI/CmffBYc5z5v8AN69t1Mj7BcH/AKZt/KtqZDR8ifFiZ0ScbiB9ibv/AL9fl38Ypke5k5z/AKEf5vX6V/GO78pbgbsf6C56f79flj8Wb4yXbgNn/RCOnu9ejSZg0fLlzzdJj2/nXT6d/qD/AL39BXMMC86t16fzrqbBf3J/3v6CnWNKR9DeE2b/AEjn+5/WvsHwyQfP/wCA/wBa+PvCgx9o/wCAf1r7C8KoT5//AAH+tebUjc9Kmz3WxUfNx6V1dtH97j0rnrGEndkeldTbkDOK81w949Hm90+i/h2uNbl/64N/6EtfX2lYFjB/1zX+Qr5D+Hn/ACGpf+uDf+hLX13pgP2CDH/PNf5CvtsojofDZxujXBGKXIpgBwKXBr3rHgn/1P3M8Xf8i9cf8A/9DWvhzx2xGs3X/AP/AEFa+4/F3/IvXH/AP/Q1r4Z8fkLq12f+uf8A6CtfHcSL3P68z6vh74n/AF2MTSmyI8+/9a2XVSxrk9NutuwbvXt9a3Bdgn736V+ftan3KJ3yp4qa3nK8E96qPKGPBpUPzD61rbQUo3OginOOD3qczHuaoW4yPxqw4waqJyVIEn2oD+L9KsxX68/P+n/1q5a4uSmMNjPtVGHUXOcP+n/1qtHM4HpUVwGzg1M+e1YFjOX3ZPpXS7AaGS4lFnYDrULzsBwallGFrPc5OKRly6l9LhvWpRMx71RiGfyq2q+1RJilAtxyMWABq/EXOM1Shj+YcVs28O7HFEWZpWY3blOaxNQUYfHtXSyxhIzxjFczfuNzj6f0rdGylY5K7iJdiB6VUSF/NXjuK3zCJDnGc06OyBkU7e47/wD16GKVQsWED8HH8X+Fd9pYKwkH+9/hWHp9ouzO3+L1+ldJbR7BgDHNXBHLKRbkj384zXFeLIWSxuCo5Fu+PyNejW8IkTJGea5TxhbAWdwAP+Xd+/s1elh0cdWR+anxpuNQjlmCnH+gse3+3X53+M7i/llYyHP7gjt/tV+l3xl05pJJiUz/AKC3f/f96/OvxxpzxSsAmP3BPX/e9693DxPPqHzVrE06MecfJnt71y0V/OM5f9B/hXZa5ayljhf+Wfr9a4sWM/Zf1H+NetTickka0l3ctj5v0FZT3Mw6t+lWyJO9YV3LIm3Bx1rq5TjmmaYvnHVv0qpLfSDHzfpWCt1Mf4v0FT4nf3/KnGJzSiTSajeKSQ/GfQf4VD9uupDgtn8BUckUhXpT4bWUnhe3rXQkEdB26R/vc1E8L9QK0obSUnG3t61bewm2A7P1/wDr1lUOunNnafDcSrrVkv8A10/9Bav1Q+BqXBsNLI/6b+nrJX5p/DPS2bV7J2j5/ed/9l/ev1W+Bumqml6WxT/nv3/2pPevExK1Z7OGd0j6l0qa5jsowTjGfT1NZ2s3LlJCW547fStmJEjtgBxj/GuX1qQBJcH+7/SvIqLU9SGxwmtz5VwT/wAsz/WvGNf2ncf+mZ/rXqOuzkbsH/lmf615BrU+7cM/8sz/AFrajuYVtjxjxQ7KX2/88T/WvB9dMrsf+uf+Ne/eIYvNLcZ/dEfzrxzWLD5j8n8Hr9fevVpHl1GeL39tJJMCFz8vr7mo4UlTPFdhc2KCQZXt61kvbqmOMVvyHK5l20v5o92GxnHavVdE1+VPN/fY+7/D9favGU46V0+nXbJv+brjt9aTpjVQ+qNH8QGXzN02cY/h+vtXaWeq7sfvP4fT/wCtXznouruvm5k/u9vr7V6XpOqM+3MmfkHb6e1c86R0QqM9AvNSITIfv6f/AFq5WbV/3jfvO57f/WqK+vGMIw3f0rjLi7fzG+b+I9q4alM7qdQ7qLVAx4k5x6f/AFquJqDMoG/9P/rV59bXb7vvdvSugspjIVBOc5rlnGx0qZqXTyy7iDnOK6zwRHL/AGxa5H9//wBBasi1svORTtznPevQPB2mqmq2x2Yxv7/7Le9c0kaJn258JlZbXTyf+mv83r2vVpgun3PPSJ//AEE15H8MohHY2PGMeb/N69I12YrYXQz/AMsn/wDQaqDKPif413nM4Df8uDdv+ulfl58TC0l0x6/6KR+r1+k/xklLyyjOc2LD/wBDr84/iFAGnY4/5dj/ADau+kzGR85pH+8XI7iuqsEAhPHesKRNkyjGOn8637Ijyj9a1nqRGVj37wsAPPz/ALP9a+wvCroPP/4D/WvjPwzKR5/P93+tfV/hq9K+dhv7vb6+1cU0dcKp9PWE0Pz5Pp/Wte3nHODXnFlqh+bD+nb/AOtW5aapu3fvPTt/9avPcfePRVX3T7B+HTg63L/1wb/0Ja+v9MI/s+D/AK5r/IV8U/DW73a7KN3/ACwbt/tLX2hpLbtOtz/0yT+Qr7TK0fF5pK5thlwOaXcvrUQVsdKXa3pXuHi3P//V/c7xXhtCuA3T5P8A0IV8NfEhUTUb1l6/u/5LX3H4uJTQbg+mz/0Ja+EviRcZ1K9XI/5Z/wAlr5DiKN4f15n1GRSs/wCvI8wW7niXKNgj2FX4NQuWCln7+g/wrIRfMT6+laVvAQinB/ya+BcbM+5jNcqOospjIu6Q5O6tuI2/VuufeuXtGeNOnfPNacVw7EYA61tFaF81zo0kwP3ZqKWa5Ldf5VFbNuXLcc1LKyBsZFUokcpz9zL93efWs6OSLnyj9ag1G+VNmGXnPf6Vyia80XePn1//AF1SiYVInt2myp8+T6f1rqVmY/dNeHWXjBk3ZeHt3/8Asq6618XGTdl4eMd//sqVjjkegujsMYqmYcMS4rKj8QFzjdH+f/16eNUMpwSnrx/+uoaEa0Xlhse1acaRMBx2rmUvQDnK1tWt0GxyOlRY0UUzXijAccVuQBBGCOtYcUgyDxV6O6AAUkVSiROKRoyhWjOa5i/hj3vx6f0rae7XZjcv51i3cqszHI7VaOOo2jOjiGRgVbii/eKCOMioUcZHIq5Cyl157inY53JnR2kcap8o71pxbf1rOtf9WfrV1MitYGcmzat5QiHB71x3jG5P2S4w3/Lu/wDJq6KOQqh6Vw/jCcm3nXjm3b+TV6NAwmfDvxXkll85ic/6Gw/9Dr8//GtrPNKx25/cEdR/tV+hHxIt2m80YPNqw4/4FXxl4o0PzHYlZP8AVHt9favfwrOaSPkbVtKkaTmP+D1+vvXLy6SUxiPGff8A+vXu+r6AqsSVk4T/AB9q4e80pF2/f7/56V7VNKxzyR5Nd2Yi27VxnPeuHu0c7d3vXrGo2i/JjPf+lecXdufl4PetznjFN6nLCMjoK1YUY5zTfs3sa0IYcZ601YmpCNiu0RI6VYghmz8o7e1Wo7cucYNb1lpu8jhvu/57VrfQ8+e5FYabPK33M5XPUf411lv4buJlGYc8Z+8P8a6HQfD6zOAVk/1eeB9PavbND8Cx3CJlLjmMHgfT/Zrlqy0Oygkzlfht4ZePVbLfBjHmfxf7Le9fpX8IrNLTTtPVl2hfN756l6+a/A3w9t4r21kK3AI39QPRv9mvs3wRoMVjY2oXzPl3/ex3Le1eHXlqz2aEdD0C5u7WG3b5sEY7H1rgtd1GHyJWR+fl7e49q6XVUCrIg9v6Vw2p2vmwPwecdPqK86e56MNjzvW7ySVjsbI8vHT615pqayvk9fk/xr1PUtNbJwr/AHfT6+1cdeaWTnKv930/+tWlLcxrbHi+sW85J4/g9vevNNXtW+bcv8B7/WvetY0tV3cP9w/19q8l161VC2M/6s/1r16KPGrOx5Dc2yeYNw7VzFxGvGBXaXwAlGPSuNuWA212WOO5nbAOgrSsgfm/Cs/IrVsgPm/Cokykd7pahd+fb+tehaRLtI5/g/wrgLIbd2PauusJjHg8fd71zSN4nU3lziEfN39PauQluQ0rAnue1Xr2+AiAyvWuTe9HmtyvU1zyjc64M7S0MTY7nbXW6THEXjyPX+tec6df/Nglfu/4V2ulX6ho/mXv3+tcVWB1QZ6tp6W6wofr6+pru/C0kA1WAA/3vX+6a8mt9VWO3HzJx7+/1rqfCuthtagXdH/F3/2T71xzidUGfoP8N2jaysuf+en82ruvEBX7Hdgf88m/9Bryn4W34lsbHlTnzeh93r0rX7gfY7rJH+qb/wBBrOK1KbPiL4uRI0kpxz9ib/2evz28fW+ZHOP+Xc/+zV+gHxcvEEso3L/x5t3/AN+vgXxvKssj4IP7gjj/AIFXfSuYzZ80agkkdyuBgYB/U1Yt7rYhG7HPpVnVICZNwB4X/GsLc6cYrrS0MLnvvhvUFHnfP/d7fX2r6Z8O6mx87D/3e319q+OfD14487p/D/Wvq/wmhm+0Z7bOn41hOBtCR9A2t843Yf07V0lhdj58t6dq5q2sfvcN2qa3uGjznAz61hChrqbSqtI+4PhTPHL4hmUnP+jN/wChpX3JobB7KBeoES/yFfnv8H78v4lnGV/49W/9DSv0A8Otmygb1hX+Qr6PArlZ4GN1R04OOKMmkor2jxz/1v3K8ctt8OXTf7n/AKGtfnx8SLoDVb0Ej/ln/wCgrX3/APEF9vhW7b/rn/6MWvzJ+KmrmHXL+HKDHldev3UPrXy2fq8P68z3Mpnyv+vIq2N1GUQbl7966yzaN4VwRz6fWvGNL1RpAgBTnPT8fevTtGuGeCE8ct/7NXw0oH2EMRodjFab0OAx+lWI7byhyCO/NaOmgNFk/wB7/Cp7xAD8vPy1UYnXRq3M7zxEpGR681m3GoHeOV6f57028Zlzj+7XNXMrbxx2rTkO1SRhancs+zp3/pXn95OY9ucDOetddeSfdzjvXAa3Ko8rkfxf0p8phUZH/bJj/iTn1/8A110un+Ih8/zxdu/1968Vvb4JtwV7/wCetMtNaKbsNH27/wD16XIcMmfWdjraPKRvj6ev/wBeupt9QBAKspyPWvm/SddzcsN0f3T39x716fp2q7kXlPuD+nvUuBFz1GK7LHt0rqdNmJI6fd/wrzKxvC5HK/drutLuBkcj7n+FZ8prFnexElVPtSO7AnioreUFEGR0H8qkcg55o5RT2IHnbBHFVHlY54qSXGTUJIxRY4aiGrIwNXbWUmVAcfeFZjNhqsW0mZUPH3hTsY2PQrIBk/GtHZxxWTpr5j/4F/hW4v3TTiS0QYwhrg/FQLJIvrCf616Ayjaa4XxIuXK+sX+NehQZhOJ8qeNtOMpk+Vv9QRx/wL2r5j8SaNt3kq/ER7fX2r7W8TWCvv4b/VH+vtXzx4s0tQkhw/8AqT/X2r3MPI5Zo+NvEdkIy3Df6on+deQ6pGw8vAPf+lfRfimw+dhhv9Sf6143qemA7OH7/wBPavYpzMJI8Tv7djs4PeuBurE/LkN3r3C60wHbw/f/AD0rgb+xCbOG5zXS5GUaZ5g8AGOtSRoeeDV24TbjFWbe2DZ60KZNSncls7QuQcN92u10ywyRw33P8Kq6fZjavDfdH9K9A0mwBI4b7n+HtVuoccqDbOv8KabmUDDf6n/D2r6n8JaRGYos7/8AUL/7L7V4j4V08CQEBv8AVf4V9QeFbYLFF1/1K/0riq1Dro0LHbeG9NEU8JUNgbuv0PtXuWiqUt4lA6bv5mvNNEj2eUef4v616ZpcrBY147/1rxa0/eZ69KFkM1VGZpOD2/pWBLATbnIP+TXV325gxx6Vh3LMtu3Hp/OuW92dOxyN7aR7GLE/dNcRfwxqDg/w/wCNdpqtyyblOPuH+tee6hdE5HH3f8a6qMdTlrS0OE15Rh8f88z/AFrxDxGh+bg/6o/1r2rWZSd3T7h/rXj/AIhAJY/9Mj/WvZoxPEry1PEtRykwB4+X+prgLyUjb0716JrK5ul/3R/M15lf/wAH411NWOVMhWY+1b9g33/wrlI2PNdLp+Tv/CsZGsT0zTwG359v61upJsUdOlc9pz7d/wCH9auz3G1BjHWudm0WQaje4UgFeG/xrmzckyMeOtMvrolm6feNZ8bFmJrNxN4yOktL5kb+HpXUabqhDpynf+vvXnTSeUobj8auWV+RIuCvf/PWuWrE7KTPYxqh+zcFP8n610HhDVGOvW4yn8f/AKC3vXkiagfso5X/ACfrXS+Dr8/2/bcr/H/6A3vXFUidcWfqP8HLsyWmnZI587+b17B4kmK2V5jH+pf/ANAr51+DGobbLTWyv/Lb+b+9e4a9eebY3ZyvMT9P92sUi7nwx8YbyQXMgwP+PI/zeviLxDJJNIcjrHjj8a+1fi7F5l055/48z0+r18d6vagP3+5/jXVSMJs8kvrHKsxDcKf89K5G4tcOOD0r1S+hUIy88qa424tPnGQelda1OWc7FvQsp5uB/d/rX2F4Jl/4+c4/g/8AZq+RtLRYt+TjOOv419J+E9XSH7R88fOzqfr71oqdyY1T6wivQueVrl7zVYI9uJI+c9WH+NcjL4tjjx+9g59W/wDsq8e1Dx1I2z57fv3/APsq1hhy5Vj9NfgnqqS+KrhQ6H/RHPB/24/ev008LEPplq3rbof/AB0V+NH7O/iF7nxrdRkxnFi54/66R+9fsb4KfzNFsW9bWI8f7q16eHp8p5mKndHaUUZFGRXoHm2P/9f9ufia5h8E3twvUeX16f6xBX5C/GTV5E8T6kx2D/U9f9xPev11+Kx2+AL8/wDXL/0alfi18dLzyvEmqHbnHkd/9iP2r5fOleH9eZ6WBnZieF9ShmSBpZEBO7PI9/evcdDvrUW8AEqfe/vD+99a+L9C8ReQIl8nON38X19q9m8P+Kd0VuPI6t/e/wBr6V8hKB9BCtoj6zsdSCphGQ/N6/8A16vS3xdCxK9K8p0PWvPjB8rH7zH3vp7V2BvN0Z+Xt6//AFqUYHp0KuhannEmSxHTFc9eFBKMHtUkl1gH5e3rWLdXWZAdvb1rXlPQVUwL4r8uT615trTiTys9t39K7q+mzt49a861Jt2z8f6VLViJ1TyvUrjbsyR3/pXLxaoq5yyD8f8A69aetPt8r/gX9K8lm1Py8fJnPv8A/Wp8pwzqHv2l+IAlwSrxfd9fce9e1aFrBljjIKHMQPH4e9fGemazm4P7v+H19x7V9F+DtQ85Y12Y/cA9f92lKOhKmz6Z0ibzFU5HKA8fhXf6ZLhhyPu/4V5f4efcqf8AXIf0r0OxOCD/ALNc1johI9Ct7kKiEEdB/KryT7yORzXJQ3HCjHatuyffIvHrRY1eptpbiY5OefSlkskVT96tCzj3befWrdxDtjJzRYwlE5C4iVCfaq8UmyZMY6irOovsL8en9KwhcYmXjuP50iOQ9U0aUPDliB8/+FdQhjx94V55o11iH7v8fr7Cuphus/w9/WnBGcom24TYcHtXEa8oMhJ/55/411Im3DpXMa90dvSM/wBa76MTnnE8h8RbAHwf+WR/rXgHiv51kA/54n+te3+IpvvDH/LI/wBa8P8AEB3q/b90f617FA5Jo+bPE1oXdjhv9V/jXlGoWB+Thu/9K97163yWOf8Almf615dqNvjZz6/0r0oM55Kx5HeaQF28P3/z0ryfWbJk8vCt37fSvou/i+5z6149rlvnyuf739K6HMw9ofPN1FINvynv2rWsYXO7IPard7bfd59a0bOHG7n0qVO5DqJm/o9qZWCuCAE/w9q9I061EYUrk/IB/KuW0mHaFbP8A/pXfacmcD/Z/wAKJTHHU9L8Ko/mDIOPK/wr6U8Movlx5P8AyxH9K+ffDabSpz/yyH9K958Pz7VQY/5ZD+lcVWodcD13R1UiMA+v9a7+wjCIjDrz/WvO9Ck3JE2P739a9Isf9SrfX+deXUd2ehBaFyVQ6HdxXM6rN5UciLjjHX8K37mfZG3GcYrh9Yu8+Z8vp3+lEUEmcfrd0S5Jx/q/8a811S/2MeV+5/j7112u3PzN8v8Ayz/xryPW73Dkbf4PX6+1d9BanBXkVdQv1kVizL90/wBfevNNcnjbcNw/1Z7/AFrWvb/CsNn8J7//AFq891q/wSNn8Hr9favYonjVnc4rWmUXShDkbB/M155ewq+3Oe9dhfXPmTA4xx61ydw+cVtIxiZKWw7ZrobGNl3cHtVKGLdnmuhtotu7n0rlqSN4o6K2fbuz7VVvb1kTjb96hpNnbOaxb6bK4x/FXPc2Rnz3Rkds46mrEUgAByOlYTyfOeO9WEnwo47VokDZeu7gmMLxwar2twRMo47/AMqpTz5HTvUEE+Lgcf5xXJX3Oyi9Dt47w+WEJXFdd4UuYYtVt5y6gjf1Ix90ivMRc4XpWrpOo+TeRtszjPf2PtXn1Dsgz9LfhD4miig0+JpYQo83kt7v719E3WsQXNhLskjbejD5SD2I45r86vhv4o8pbJPIzjzP4v8Ae9q+sdB1n7VpkLeXt35HXP8AER6VjY0bOF+JGnm6eSQBji1I+Uf71fI+vaY0chBVx+77j6+1fcviW3+0Qyndj9yw/Q18teM7HyZj82f3Oen+971vEwmz5u1aB4pgqKSNuen1rlbkMHGR2r0TVx8xP+x/jXn97JiUDHau2krnDVZUhlVc7iB9TXYaf4nS037ZIfmx1Pp/wKvL7i+2Y+XP4/8A1q5O417y8fus5/2v/rV6dKmcznY+h7zx9H8uZrbv/F/9lXkb+M5Z+rQceh/+yryW/wDEn3P3Pr/F/wDWrDstY37v3fTHf/61dkaZDqH7Qfssau118QbyNinGnSHj/rrD71+8PgAq3h/TznrZxf8AoC1/Pb+yPNv+JF6MY/4lsn/o6Gv6Cvh43/FO6b/15Q/+gLW8I2OepK56JsX1o2L60lFbWOc//9D9rPjA+34d6if+uP8A6OSvwn/aGv8AZ4k1dNmcfZ+/+xHX7m/Gg7fhtqR/64/+jkr+e/8AaUvdnjLWk25/49u//TOL2rwc1heH9eZph6tpHlthqXzJ8nr3/wDrV6XoWq7Vt/3fRx3/ANr6V84ade8I2317/X2rttO1LaIvk6N6+/0r5p0dD1oVz7V8Ma7hFHlf8tR/F9PavYtN1fzoj+7x82Ov09q+H/DerZ2fu/8AlqO/09q+hfCl75ka/Lj98B1+ntXPKnY9jCVbo9xL+YpOMVmzr8/4VJZS4gbjuf5VDcXPzjjtWbR6sWcrfybNnGc5rhryXdt49a6HVJ92zj1/pXHSjOKgqR5frhz5X/Av6V8/6mcbPx/pXvus/wDLP8f6V4LqEW7Zz6/0ppHJJE2jy5uW4/hP8xX1T4A+fyh/07L/AOy18yaJY7rphv8A4D29xX1x8OdN2tE2/wD5dV7f7vvRNaCtY+kvC0G5I+f+WI/pXosMO1Rz2rB8L2eEj+b/AJYjt9K7fydqjmuM3pyK0K/OK6OyXG0/WsRFw9btjztX60mda1Os0842fjV68f8AcMPp/Osi3bYB3xUlxLuiPFSKxxmtyYaXj+7/AErkGnxcJx3H866jWBkyH6f0rjbhcShvQUIrl0PQtGn/AHPT+P8AwrsLWTI6d68q0m62x/d/j9fpXY2d58v3f4vWt4I5pI7lJO2KytX+ZHHqh/rUVvcbiOO9WLpd6n/drvpI55o8V8SW+C3P/LI/1rxDXosBzn/lmf619JeI4Pv8/wDLI/1rwbxMnlxyd/3JP869SicU0fPPiE7d3/XI/wBa8h1aX/V8ev8ASvT/ABZc7GfjP7k9/wDerwvWL/Hl/J69/p7V2xOdq5BPJuxxXD6lbb9nzYxnt9KJNX6fu/1/+tWTPqm7H7v9f/rVq5HPLDt6nDX1hjb8/r2/+vUUEG3PNT319nb8vr3rMjuevFZ8wRwrZ6LpUWVUZ/gH9K9E0u06Hd/B6fSvMvD77pBx/wAs/wDCvY9JjzGnP8A/pUykd1LB3O20iPYF5z8g/pXsHh8ZKj/pmP6V5RpsPQ5/h/wr0DSrjyCOM/Jj+VcFWR2rBM9x0M7Iov8AgX9a7iC62QD5c/j7/SvGNJ1H9zGNnr3+vtXW299uiA2/r/8AWrmY+Tl0NzVtS2iT5PTv9PavOdT1PLuNnp3+ntWlq0m5JGx6f0rznUpMSvx6f0rSCOeoybULrzUY7cfIR1rzDWzlyf8AY/xrprq52qRj+GuC1q6xuO3/AJZnv9a76KseZXZyl+2Fb/dNeYa9Phjx/wAs/wDGul1rUtgb5M/uz3+vtXkGuaruc/u/+Wfr9favTpM8upuYup3/AJVwF2Z+XPX3NYput38P61jalcebOG24+XH6mpLaPdu59K1bISO40+Tdv49P612kS9a4rTkxv/D+teg20e7dz6VyTZ0wRn3f8P41jTpu/OupuYvu8+tYk67c/WsLmtjnng5PPes+c+WPXnFb07YH41zN4+Sf96umLM5bFGaXvjvVeKX9+OP84pXG6oANstc9aN2dNF6HRQyZUcVIJdkucViRy4IGKJJckjFcc4HbFnu/w91DbqFmuz/np39m9q+7PBNx5mh2jYxlm/8AQzX5s+C5/KvrZ8Zxv/k1fbvw/wBc2aVYReV/y0PO7/pofasVA0ue1eIJdquMf8sj/WvnnxevnM/b9yR/6FX0DezfbLeRsbfkK+vavGPE9ptZju/5ZHt9a6IUznmz5k1yy2lju/5Znt9a8o1WPbcKM/w/1Ne7eJv3Ycdf3R/rXz5r9ztvFGP4B39zXbShY5KhwF/NjZx6/wBK8/ups7ePWtO/ud2zj1rkpXzivSpI4arGTruxTNMizv59P60jNUGnPjf+H9a6zl5j9lP2RIsfEm+5/wCYZL/6Ohr+gjwBx4c04f8ATnD/AOgLX89f7IsmfiRfDH/MNl/9HQ1/Qb8PefDmm/8AXlD/AOgLWsSWz0YdKKjorSxB/9H9nfjj8nwx1RuuPI/9Hx1/Oj+01PjxrrbY/wCfb/0XFX9F3xy5+F+qf9sP/R8dfzg/tQ8eNtc/7dv/AEXFXJiqakrMyfu6o+edOmzCjY9f5muns7nATjv/AFrhdKYGGMfX+ZrsrJSVjPv/AFrw6tGKZrTqs9V8M3uxkXb1lHf6V9N+C7/bAPk/5b+vstfJ+h/JLHn/AJ6D+le/eGLlFjXIP+t/wrz8RTSVz28HWlc+ko9VxEU8vrnv/wDWqhNP5jZxjiuLguoywAB5P+e9dJaoZIyy+tePPQ+hpTbM2WLzMc4xVGaHdjmu/t9LuHzgrx9f8KJtJuUxll/M/wCFYNnfFXR85axYbvL+f17fSvKp/D27H77/AMd/+vX1heaPcttwy9+5/wAKxR4cvm6On5n/AAppkygjyXw54XzfOPP/AID/AA+496+r/A2ibRGnm9LdR93/AHfes/w94evVvWJZPuHufUe1fRHhjSbmIIWZf9SBwT7e1KUnsS4I2NCsvKRBuziMDp9K6N7fKjmtmyhaJF3Y+6BUkrD9a55lQgtzk2gwxOa07CP94nPr/WrLHkmpo3AUVg5M2RdK7eap3EuFIxTZJl5HNVmYNwKFIsyL397uXpnFc7c6f5mfnxxjp/8AXrsmhZuRiozaSOdoI54reKJctDioLT7Mu3du5z0xWpbS7SBjvW3cWE0KMWI4BPFchqF7FbNhwT8uePxrrpo45yO5tLzyhv25wc9as3PiXywR5OeM/e/+tXh2oa3a+W/yv9w9h7+9eY6vrdp5v3X+56D3969KjFHNJs+gfEHibzEdvIx+6P8AF9favnXxl4nwkq+R1gb+L/e9q5DVdZtZEcKrcoR0Hv714z4lkWffs7xEc/jXfBWM1G5znjTxHmRh5P8AywP8X+97V4Tqeseds/d4xnv9Pauo1nR7m6l/dsoymOSff2rm/wDhDdTk+7JFx7t/8TVuTRrGgmcYreb7YrVi0H7Tn97t2/7Oev4165Y+D9TG795F27n/AOJr2fQ/CuoDzcvH/D3Pv7VTkzpjh0z5GHw98/8A5fMY/wCmf/2VakPwpzn/AE//AMhf/Z1+i2leHr1fMyydu59/avQIdMnTOSv61k5s66WEi+h+eeg/DD7MEk+3bsxgf6rHp/tV63pPgjaiL9q6IP4Pp/tV9gxWzqcEjpWkqEKKylNno08LFHzBb+Gfs6L+/wA8Afd/+vSyad5fG/Pbp/8AXr6C1L7n/Av8a881Fhub/fP9a55XKnRSRxlnF5RXnOM10NvqX2ZQuzdt9/X8Kxb6RUdmPtXEatqlvC0gYNxjpj296cY3PFxUbNnpd9rW6Fj5Xp/F/wDWrzrV9ZxLJ+79O/09q4q+1y08lvlft2Hr9a891TWLZppMK3bsPQe9dUKZ8/iajWx6BqeuYJHlfw/3vr7VwOral56O2zHyEdfr7Vx2oX8MpLKD932964+/vYgjcH7p/rW6Vjzp1GyHxLe7HZduf3R7/WvI9SuPNJbGPl/xrW1q5jkkyoP3Mfzrj5fnBx6V0wkYuNxI2ytdPZjO78K520hYRnp1rubC2kO/kdqHUYlE6Cwj+/z6V39qmN34VyNvEyZzXQJMq5zmpd2ax0NmSDzcc4xWDfWGATv/AIvSriXcZ7GqdxOjDAz1pcpfMzi9RHlA9/mx/OuPnnzIwx3Ndpqh3Kcf3/8AGuBuhiRv941pFkN3LCtmq8j7ZCaaqlwAKY1tIzYBFEtTemyVZ8npVhH3EcVXSxlIHIp32OVTgkVhJI6YyOv0jUPsxjGzdtz39c+1ezeF/FHl/ZIvIz+8HO7/AG/pXzlHbuMciuy0GFhLbHj/AFg/9CqVFGvMfoB4X8Q+dZN+5x+8I+97D2p/iK786KQ7cfuiOv1rxHwqwS2wf+ev9BXYX3zwuB/cNaxRlKR5R4w5Zz/0wP8A7NXznrq+ZdqenyD+Zr6M16yldmII/wBWf615Hq2mzm5Ugr90evqa6IHNUZ813tl935vXtXLSw4xzXtGoaZP8nK9+5/wrgbnTpvl5Xv6/4V1wZw1TipIOnNR2C7d/4VuT2ki4yRVCyiYbs+1dcGcEmfr1+yGc/Em+/wCwZL/6Ohr+hP4fH/im9NH/AE5Q/wDoC1/Pf+yIp/4WTff9gyX/ANHQ1/QX4AGPDem/9eUP/oC1vESdz0Oiq24UbhVDP//S/Z/43Dd8MNTH/XH/ANHx1/OT+1HCf+Ez11uP+XX/ANFxV/R58aFz8MdS/wC2P/o5K/nc/ahti3i3XGGP+Xb/ANFxVyV2RNHyJpS4jjH1/rXeadt8uPI7/wBa4a0Uxoo9M9K6ixnIWMZPX+teNWeo6UT0fTSBKmP74/pXs3hqYBAOf9b/AIV4TpUpaVOT98f0r2Tw6JDs2nH70f0rzcQ7o9rCrU9o0795Kn++Bz+FevaFpvm2jNhfvkc/QV5LoFvI0seSD+9H9K+i/DNjmwfhf9Yf5CvIqI92izorLRU+b5I+3b/61Vr/AEtF2fInft9PavSbSx+9wvaub120dfK24H3un4VzNHpRloeUT6bHx8ifl/8AWpItIRs4RPy/+tW7LbSHHIrTtbB/mzt7Ux85LpGmBLljtT7p7e4r13SLfaiAAD92P6VxthbbJicDpXe6ewVV/wB0VLDmOhVGEYx6VSeORmIB71fRxsH0pybCx4rGY1KxiyQSbTyKjjilBAJromjRhjApothjIArlkWpnPyRtk81HGh3jNdC9qCDwKpSW+wk8cU4idQZGgIHAqQoqjdgcVEHCnFS7gyGt4MzlUOV8Q34gt5WBYYiY8fQ+9fLfjPxibS4I8ycfuc/Kfdv9qvpHxcjGzuNpx/o7/wAmr4N+J/2xLw7JCP8ARexPq9dtM53IW8+IabG3SXP3T3/+yrz3V/iJAz+WGucsmAcj3/2q8o1K41BUc+e/3D/EfevKtV1S9XUIlaaTkL/EfU+9elSZna59J2fiSW+IUSzHc235m9fxrqYNLn1Bc5U5O35s/wCHvXg/gy5muJoQXY5uFHJPqtfYng3SftNuGZUP77HI9l9q7Uzqp0jz+HwPLK6llgPIHI/+xrpbLwCvzborY9P4f/sa9yj8PpGM7IuOen/1qtR6fHHn5E59B/8AWqrnbToXOBg8JWK5xbW//fA/+JrqbTRrSHdiGIZx0Uf4V0MH2ds4QfkKnfyh0XH4UOR6McNoXbWC3XdhFHTsKmlZRjAxVWCUc9allYcVDZ2UsPYqNdKrHr1prX64wN3+fxpksZPzccmqTAA81LR0eysUtQvQU/i+9/jXnuo3a7mPP3z/AFrvrvytnK55rh9RMG5vkH3z2HvU+zOSsrJnAa5fiOGWTLcben1FeBeKfEohuJ13S8beh9h717N4ymSK0uXUEAbOn1WvjD4ga35OoXYDSDHl9D7L710U6R8/i+p09z4pUo3zTdu//wBeuSv/ABNGZXyZe3+eteT3PiNijAPL27//AF65O+16UytiSXt3P+NdUaZ85iVqz2e58SRkEAy9P8965e/1wPkK0nK46/X3rzy21aSVeXc845P/ANergkeVgMnnjmiUbHntF2a4e4fIZumOTRFbyNxkda09O015lDfKfmxz+HtXTwaMwI4Tr/ntTQuUwLSyYRkHb1r0jS7HO/IXt/WorLRGaInEfX/Pau3s7Dy93C846UND5Cq1lt6BaxrmYx7eTznpXYTgDGBXA6pJt2Y9/wClAnEorqm3qX/z+NRvqq+r/wCfxrjrm5dduGbv3qobmQ/xN+dBJ0t5fo4/i61zcjCSRvqTzTGeRx94/nRBG5kOTnii5LLkUR4PHSrCwnd2q9bQgAFgDxVgomegqXI1gyKGIbRwKtpaByOF5/z6U6FRxxW1ZwhnUYHes5SN4yKlvpRcjhP8/hXc6Lo2BA21OHHb/a+lWdG09ZJowVU5z1H1r1TS9GQQxMEj6+nv9KhSNOYtaNAIIsED7+ePwrbuplEbdfumni08rgBR34qjfHajZ/umtUzKUjjdUdXJOP4P8a8+1GJGnB2j7v8AU1318ylG452muGuwTIPpXRBnLUkec31ih2/KvftXCXWnp8uFTv2r1e7hLbcY71yFxYucY210wZxVJnk97ZoNvyr37Vx9qijdwO1ep6jp8g2fd7/09q4GGzZc9K7IM45M/V79kQAfEm+4/wCYZL/6Ohr+grwAB/wjmm/9eUP/AKAtfz7fskROvxHvTn/mGyf+joa/oF+H+f8AhHNN/wCvKH/0Ba6YsIne7BRsFGTRk1Zof//T/av4xKZPhrqMY6nyf/RyV/P5+01YM3ifWx8uf9G/9Air+gX4vHHw61D/ALZf+jkr8FP2kwD4k1o4/wCfb/0CKuDEyFJHw1JbmFSGxx6VatDjYff+tT3oXLDHpVeB1XaCOhrwq09TWkj0LQV82SMr/wA9QOfwr6K8H6a0wQYXJnA5/wCA+1fPfhJ0eSLj/luv9K+vPAFokixttX/j5HUf7tedWldHsYeJ6h4f8PTeZG37viUf09q+hvDmjSCxfhPvn+Q9q4/QbBMqQq/6wdvp7V7XoluiWjDaPvnt7CvPmz1qbOgs9IkO77nb/PSqWo+GppdmREcZ6/h7V2tlHnd07VuxWayZ3Kpx6iskdXPoeDSeDbjjiH9f/iasR+GZY85EXP8An0r2mWwj4+VPy/8ArVly2acYVfyqmg9oeYrpMsZ3fJ+H/wCqtC2iaM4J6DFdXLart+6v5VnS2+PugDmsnE09oMW5RVCkHgU+OddxPNQGBhzxUixEelZTQ1M1I5VOOK0EKMgUDmsaNWGDmr8BIYZNccxuZoLbFxxj/P4VRvLJ1Vm47VpxSgYHNPlQzIQO/rURIczh5v3Tnd2oiuI94Qg8n/PetXULJgHb5e1YDxtHICe3PFbwZm5k2rWMV5byoEU7o2X5h6g180ePPhzLfzNJGltj7OV+Yf73+yfWvpxXMikZPPHNYGr6Y1wGIC/cI5/H2rupsm5+dPij4YXNrbzOUtflhZuAewP+xXyN400FrDUkBEYxEG+X6t7D0r9Z/F3hmSS0uMCL/j3cc/Rvavhb4l+C5/tDSgQ/Lak988Fv9mu6nI3po8E8GX8dpdQLLuP+kKePqtfcvw71uzmtQFV+bnHIHovvXwva6Tc2lzGdyjDBvlJ9fpX0L8PtQuIVjQyPzcg8E/7NdkZXPQoo+1/tETRtgHoazJJemM1z+k3ctxFy7H58cn6V0ccJOd2DV8x6VNIitc/Nn2rYa3LdMVpW1jH83yr27Vpy2yrjgUuY9aKVjkVIi+939Ke0yv0zUd3hduPeqCs3rRc6YJF6UkqMViTXAViDng1qojt1NZ09udxJx1rSIqjsjLnuFcYGetcbq8iwIZHGQX7fjXS3jCLP+9jivNPE+ohIMZb/AFv9D71vGJ5OInueTfEbVkis7wguAPL6fVfevgj4ias0upXhRnGfL7+y+9fWXxI1UNBepl/+Wf8ANfevjTxWPtV9cY/i2dfYCumCPnsVLc4H7ZLIdu5ufU1WZZJJsZ6+tbkOmtkHC/5/CtO00oyXCjCc56/T6VunbY8HEalLR9OmmUEFfv45/D2r0PSvDk8zqf3f3wOc+3tVvQtJWNArIn+s9Pp7V6rounRgKdif6wdvp7VlPc4WiXw34PeRApWEky45H0/2a9Nt/h5Mw3BLbg+n/wBjVzw7DFGUBUf60dB9K9k04QNEQUH3vQe1QFjxeXwNcxttQQKPbI/9lrHuNKltcbtvzent+FfQ11axtICqqOPSvLNat1Hl8Dv/AEoL6HkF5ME25zzmvOtSu432YB7/ANK7zVnVfL/H+leWXz52/jSbMpHPywO+MY4qWLTpG5+Xp/ntU6EHOa17bbxx2qXIyZmf2c4HO3/P4VYgsG3fw9K3AEIxirlvEhPAHSp5ilEpw2hCgHHSrUdiXYcLXR2lkJcABfu55rdtNKy65VO/+elZymWoHMWmjs5XATnP+elddpmgMSjFY+/b6+1dLYaSBs+VO/b/AOtXX2GnIgT5U79vrWLmaqJmaLoZ86JQsefm7ex9q9U0zSxHDEjqhIPp71kafBHFKjbRxnoPrXc6e0ZWPjv/AFpKRXKRy6SrKWCp09P/AK1chrGmMqtgKP3Z/r7V66qRtGflH5VzWs28ZV/lX/Vnt9a2jIykj531K3dAynH3D/WuKuITvGcdK9h1m1Q7sKv+rPb6153cWbbx06V1QZzVEcPLCGxwKzn07pkLXTy25XHSqUyEYrphI46kTzu/0wPswqcZ7fT2rzU6WV7JXsV3/D+NedEZrrps45RP0q/ZOsWX4i3pO3/kGyf+joa/e7wGm3w9pwPazh/9AWvwj/ZU+X4h3h/6h0n/AKOhr92PAr/8SGw/69Iv/QVrsgxxVju9po2mlHSlrUs//9T9rfi8Cfh1qIH/AEx/9HJX4K/tJRynxLrQA/59v/QIq/fD4qr5ngC/Xrnyv/RqV+In7QeiifxHq7GLOfs/8X+xH715eKZTPgG4srh8kLnPuKrpptzxhP1H+NetS+HlCn9z/wCPf/Xog8OM7KFhzk/3v/r14Fd6m9FGb4M02582HKf8vC9x/s+9fbXw30eZokPl/wDL0O/+7714P4Q8KTh4iIP+W6/xD/Z96+y/hzoU0MKB4sf6SD94ei+9efVeh7GHR6xoulSIATHj956/T3r0/TLZkgI24+b19hWXYWDRgDZj5vX/AOvXYWNuREeO9cMmelFG7Yhhu/Cuptlb5uPSsextvvZHpXURRKueKUdRylYyZVk44rMkic44rpJIhxkVRaEelbWMuc52S0OPu/rVGWz4+739a6h4uOlUJ4+OB3rNxNozOZkgVe3eq+1QcGtW4jPYd6zCr7jkVhURfOW4ogxHFX1t8LuUc/WqtuGDLn0/pWzAFbCmuGaKcinHHJuHFa1vAGUbhTxDGOQKsxbUAxWREpGVqFkhichfTvXIXloFfhe3rXf3XzxsvXOK5+6tGfLBc8etaxZnc5aNFVgD61ZeCGVTkZyMd6J7eVHHGOPWnxLLtO4V2Qkao5PWtAgureVRFu3Rsv3iOoPvXzP48+G0V1HNILLdi2Yf6zH97/ar7Cl2kFX7iuX1fSLS9ikjMe4tGV6kdc+9ddOR00z8sdd+Hj2UhaOz27Y93+sz0z/tVn6FbXmmzxLjYPNVux7j/CvunxZ8PoGSQrZ/8sT/AMtD7/7VfPereDzYzgi32YXd9/Pc/wC1XXGZ30mb/hnVJGRVeTrKO309q9Vsp45N2TnGK8Q0VTbOiHj94D/KvWdKmVvM59P61opHdCdj0KBnXOatTzE4wahWW17H+dRSyxHG01dz0YVTm7kFtv40RWm7Py/rViUJxTknRM5NCZ1QqmpFZWqxKWXnAzyaw7yKBWbA/i962kn3IAD2rBvXAJJ/vVtFkVqmhxWq7Bn/AH/8a8T8YXMccBy2P32Ons1eva5eQxqfmx+8x0PvXzv431BTCwV/+W57f73tXVFnh4msfPHxGvWd7xUbj932/wB2vnC+t3ub1+NxbHt0Fe7eM5PtE9yuc52fyWvO7XSfOvFYx5znv7fWtYyPIrSuc7Z6BJJGreTnOf4v/r1q2mgSpdL+6xjP8Xt9a9a0Tw7FJBFmHOd38Xufet4eGIlm3CD/AMe9vrWykeNXepwmi6IxAzF/y0/vfT3r0/S9EKpnyv4/730960tI0BUUHycfP/e+nvXdWmmJHETsxg56/wD16zkzkMawtjbFcrtwwNdzp2oIi4Z/4vT6e1clfulsTj5cLn1rA/t8QnAlx3+7/wDWoQM9hl1CNmyr/p/9avNdauFPlYP97+lZy+Ko8fPPz/u//Y1g6hrMUuz95nGe309qlsVzzbWJz+7yfX+lebXJLbfxruNTmSTZg9M/0rjpYs4wKhsxkzMRT2FaduHGMelQLC/8IrZs7OZyMLn5fWsnIEgiSVj+FdFp1hPK3CZ+XPUe1WbDRpJGGY8/Lnr9PevTdB8ObmGYf+Wf976e9ZuZ0wgY2laLclgTF/B/eHt711tnocu5cxev8X/169H0PwxEzAPB/wAs/wC99Peuqj8NQx4Ihxj/AGj/AI1EpGvszzez0d1Vcx+vf/69bcNg6YwmMe//ANeu0/shYxgR4x7/AP16P7Nk/hT9f/r1i2aKmc1FbyKwOK6SwVwsefX+tSJpVySAsf6j/GtW30q9UL+76H1Hr9acZDdM0opCEIzWVqUbyq2OfkI/nWuLK8Xqv6j/ABpktnOyncvb1FdEWYygeT6ppsjbjs/gPf6+9cPc6Wd4+Tt6/wD169zutMZwQyfw+v8A9euYutD/AHg/ddv73/166qbOacDwS6sGG3Cevf8A+vXPXNu428etez3mhN8uIvX+L/69cndaC524i9f4v/r10xZx1IHiF1DIdvHrXAR2srZ+X9a99ufDsh2/uf8Ax7/69crF4XZc/uP/AB7/AOvXZTZwzjqfdn7LFo6/EG8JX/mHSd/+msNfuT4HUroVgD/z6Rf+grX44fsy6P5Pjy7Yx4/0CQdf+msXvX7M+EIxHo1kAMYtox/46tdsBKJ2AJxS5NIOlFbjP//V/bf4oMsPgK+ebgDys/8Af1PSvxc+PWpaeviHVcvx+47H+5H7V+y/xjkI+HmoqDz+5/8ARyV+Fnx9e5fxVq0SnI/cccf3I68fMnyRuv63NoR5tzy+H7JeRhofm3dOo6V1+i6Clwbc+Vnc4H3v9rHrXM+EtMubiG33JkHf3Hq3vX0J4Y8Ot5Vqxh/jH8X+39a+ZnVbO6nRR1XgzwfZDy/Nt+fPH8Z/2f8Aar6i8KeHbC2RSIdoEwJ+Yn096878N6YkJTcmP3oPX6e9ez6aRFHtXj5v8K5Ju+56FFWZ2Udrp2P3a/qa1LaCFYyAO9YVm7Njn+KuigGUP1rHlTO25tWyEbtvtW7EG53VlWwHzfhW4gB6VpGCEyLy93ao2gX0q8q+1DJntWvKjN6GM8UeOlZ9xApX5BzmtqSP5eBVGZCB+NZyiCnY5+a1JH3e/rVA2Jyfl/X/AOvW5MSPzqmZDnrXJVTNou5SW1dSDt6e9Wow6EEU7zCe9N3kHrxXDNNmrLKyMTyanBY9KpI2SKux9BUezZm2PClvvCn+RCynIqRRTwvpQk0xpGDdWEbPuVO3r/8AXqg9tHGhG3Bx610s4wD9Kw7k5zj0roi7Fq5zV1G4PyjtWOwmMgBrobgE5+lZLxsGBx0rphM3hcoXWlw3isLlN2VKnkjj8K888Q+AtIuEeRLTJERA/eN7/wC1XqfmMDgmmTw+dEwIzkEV0RqnTGo0fIWq+DlsJwba22YXd9/POT6t7VnQW+rQZ8oYz1+7X0frPh9ZpM+Vn5Mfe+vvXML4Wj/54f8Aj3/2Vaqoaqszg/tWoJ99sfgKYdYRP9dJjPTj/wCtXR32kTJtxHjOe/8A9evJtY+2Q+Xt4zn09qv2p1xxNjqZfEmkLjfN/wCOt/hWS/irSe0//jrf/E14pfajqY24f17L/hXNvqWr9n/Rf8KFUNo4w+jF8a2KHH2nAHA+Q/8AxNc1q/jyzRCVusfP/cPv/s18+3GvarGxBlxg4+6v+FcpqWvalICPNz8390e/tXTCoVLFXR6D4j8fOxcR3f8Ay1P/ACz7c/7NeD+KPGE9wjKtxk+aT9we/wDs1X1K51GYtls5cnoPeuFv7HUZ2bC5yxPUV1xqHm1p3Kt5ei+dmdt7vjtjp+FW9MtU3oxX17/Wo7TRrrepkj557j/Guy0zR5PkzH69/r70Kep5Vap0Oj0JIlSIEf3v611awxsdwHFUNK0woI8pjr3+vvXSC1CJjb+tbKozzqr6kFvmLiPgZzV2S+eKFvnxwT0qDy9qkgVi6jclEYbsfIf60ORzXOe8QaxN822T/lmew9/avLLvWL7f8snb0H+FdTrExkYjOcpj+dcXLbMzZx29afONK4g1bUTz5n6D/Crn2+7k/izj2FU1s2xwv6//AF6uR25GeKhzG1Yw7lbhtuf6VnCMt1FdNPAeMCs+O1bn5f1rNyOeSIrLT9+7zU6YxzXZ6VpCMw/d/wAHr9PeqtnZt82F9O//ANeu40e0feMr/B6/SsnI0pxvubelaDGdp8r+AfxfT3r0/RdIiiKkx4/dgdfp71iaVbsAvH8A/pXf6dGeOP4f8KxlNnqUaCZ0FjbxwKrIMHaBWoqO/QZqG0jJABH8NbtpbBtvy+vep5mdEqHYoxWYdgHXOff/AOvW9Y6FFPt/dZzn+L/69XrXTi7KQnr3/wDr12mlaayiP5PXv9feouw9kY1j4St3dc2+c5/jP+Nbq+ErJBg2/T/bP+NddaWxiCnGMZ71ZkzzTTE6Zwc3huxXOIe394/41j3OiWSA/uu394/416BcE4OfSuavjjP+7W8JMwlTPPr3S7YKxWPnaccn/GuSuLAbxlO3r/8AXr0K75B/3a5mdAX/AArphNnNVhY85udL3bf3f6//AF65+fRGbH7r/wAe/wDr16bJbZx8v61UksTx8v6//XrrhI4qkLnjc/h/p+6/8e/+vXP/APCPjtF/49/9evaptPxj5P1/+vXM/Yc/w/rXXCTOV0T6t/Z6042/jS6dk25snHXP/LSP3r9YPC3/ACCbQD/n3j/9BFfmT8DLXb4tuDt/5dH7/wDTSOv078Mpt0u14/5YJ/6CK76Umc8ocp0oopMijIrrMj//1v2t+K8BufBF/EATu8rp14lSvxq+NHg57vxVqUpinw3k9F44jT/Zr9sfG0Kz+GbmJs87OnX761+efxM8NwzaxeyfvOfL6Y/up7V4ebS9z+vM6qEbnx14O8GiGG2BScY39R7t/s19AaD4eSK3g4k4bPP+99Kn03R0tUQDf8uevvn2rtrHMcCAdvX618y5I9WnDQ1dLsBGVwG++D/L2rvrKEgDIP3q5LT7huDx97/Cu2sXMi7v9rtXNU1R1Qgb9lEOOv3q6OFdq496xrIHA/3q34kBWs4xZ0WNSCQjOK3LWQvuz2xWFFF161s2q7d34VvGJDNFaUjNItPwa05GYyZSdRiqMyZH41pOvFU5RtGfepnCxCeph3EQx361lsoDGtm5Jx+NY8mST9a5KrOqDGYFIwGOKjLEU0SHOK45PU23LMXatKFelZsR5BrSiYYFImxcCjFL0FReZj0pjzYB6dKl7miViO4bIP0rDm5/Kr0sxORx0qgxBNWoo0TKDwl+xqrLZ4UthuBW6iqR1p7xK0bKM8g1qkjaMkcNN8hz7UxLn5cEita90/qQG+7/AJ7VzssDRnhT0zyKtWL5kF0VkySe1ZRSNe9LczvGD06Z5rAn1QpjJT/P41opLuHOiK/s1fZjPevHdZ0Ey+X8snGeg+ntXrMusxNj95H+f/16xppYJ8ZccehFVzIxdZnzVeeES2393P37f/Y1gt4PUdUm/L/7GvpmewgbGCT+Vc9NpicY3f5/ChSRUazPlfUfBxDsRHP989vr/s1yVx4NkZiPKn6/3f8A7GvrS70mNyR8/wB7/PasZ9Ehyc7+v+e1bwmjdVWfJNz4Hkxnyrjr/d/+xrM/4QYljmK4/L/7Gvru40S228l+vqP8KwJ9LtIyfnbrjkj/AArpjVSMpybPmmPwOEIby7jj2/8Asa1Lfw0sGAVlGPUf/Wr2m7it4gwV+mOpFcrfzKhcKQelP6xqcc43OXhsY4AB83HrT5AgyM0l1eMN2MdqyHvJWY8CrjiDknSuW5nRUIyOlcjqrbt2Ofk/xrXnkmk6LnjsKy5bWaY8o3THAq/bmaoHBXVs0rZwemOKy2sD/db8q9K/sdm6rJ+X/wBaoJdH25+V+np/9aj25rHDnnyWQA5DUhgVfWurn09o3ACt0/z2rHmtn4wD+VHtxyw5gSRA461HFag561sizkb+FvyrStdKkbd8j9u1TKsc88ONsbMHdw3au30myAYcN9z/AAqGx0mRd2UcdO3/ANau10zTWBHyv9z0+ntWUqxdOhqbGnWwUKefuD+ldlYxhcf7tZtnYuFX5W+6O1dDbW0gx8rdPSsnVPVo0rGxbYUD6V02mgOU/H+tc7b27tgbT09K6nSrZwY/lbv2+tR7U6uVI67TrdWKde/9a7fT7VQqde/9a5zS4G/d8Hv/AFrt7KIhF4PepdYWiLCxgDFRSIOauMuBVOUnDfSnGqZSsY90Bz9K5e+I5/3a6S63YPHauYvFc54P3a6YVDnm0ctdkbT/ALtc5IctXTXUDsCNp6elYMto4b7rflXVCVzmqJMyzg0rKp6mnNEw7GoHZhiuymzinEzZkQ45rk0CnPNdHPIwxXLQFjniu2ByyVj7W+CGB4ruOf8Al0f/ANGR1+lnhs50y1/64J/6CK/M/wCCYI8VXHH/AC6P/wChx1+lXhdidOth/wBME/kK9GgcdXY6jaKNopcGlwa6zlP/1/3S8V/8gO4/4B/6EK+KvH0W/Urvr/yz/ktfa/ioAaHP/wAB/wDQhXx54ytvN1O5ODzs6f7q183nLtD+vM9HCRueSJZO+Aqsc+g/+tWxbaWxhUFXB+nv9K6bTdLDFDh+/wDX2rpY9LAA4f8Az+FfJSmz2qUNDktP0pRgMHHzf4e1djaWggAVc/ezz/8AqqZbRY3HXrnmtOKNSRz3rNVDpjGxbs0wB/vVvQjC/jVC2iHGM9a2oojt6GuqE0OSRci71qw45zVFIxzWnBGpzzXXBoxkWFAqfaKRI1HerPlp61rc55FB14qjOny/jWw0S4qpNCpXv1qZtWM0c5cRjH41lSRDJ69a6Sa3XHfrWc9uue9edVijqpnPPHjPWq5Q56VuyW4wetU3hCgsM1yOKOgqRkrjNXEkAA5FVXBqLcQcU+VAmaDTADqKrtPnjiqrOcYqAk5qXBFliRxnqKgLDNMOTSFSe1TyD5S1G4x1FT+bgcEVnhSKfkgcUWLUWLPIXBz6Vg3canOf7tbBJIJrNuUzkn0pM05Dh9Uhwrbcn5D/AFrz6/jf5MA9/wClepahENrdfuH+tcNfwj5OvepuTyM82IkHUGrsCE54pZEmOPlP5Gr1rbzHd8jduxp38yXAupahs5zTX0wNjAf/AD+FdDBZSHPyt+VbEenPz8r/AJUXYRiebvoKsScScn/PasW80UoMhZPven/1q9uTSGYA7X/L/wCtVC90Isn3ZOvp/wDWq4yOmMT52vLFkzlWHzdxXAarHIpbapPznt9a+jdW8PfKfll+/wCn19q8w1bw/hm+WX757fX2rVVBygeHagsx3/Ke3Y+1cndQuzsCp7dq9j1LRHV3ASTt2+ntXI3eivvb5JO3b/61aqZxTTTPM5rHdnhqgTS9x6P/AJ/Cu/k0l1J+R/y/+tRHpxBHyt+X/wBatoyRk4s4yPSFxyHH+fpVlNKh7lv8/hXXvabQRhqpPAAe9aqSHGLMNtOiUHBb/P4VlXVmgPfpXYeUMHrWXd2249+lO6OiMGcBdWcZkHJ6VgS6aTjCufw/+tXoraYsp3EN+H/6qnj0VWzw/wDn8Ku6KcGed2+jOc5ST8v/AK1ddZaE3zZSTt2/+tXb2ugqd3yydu3/ANauytdBUbuJO3+elK6MZU32OAi0UjO1ZPy/+tXSadpOCMhx8vp9Pau0/sYRfdD8/wCfStG203B6P0/z2qNBRg0ZFvpihRw3StaDTvZun+e1b9vp4wOG6f57Vqw2QHZulRZHTBtGHaaeA3IbpXT6fZqrJ171Ygs+ejdK2LS0IZeG7/56VDSKbbNPT4ACnXvXV2yoEUZ9axbWJlC8HvWtErccVFkSWnUHOKpyxZB4PSr8akkA1Y+zgr3q4JGM7nJT2+c5z0rHuLLdnAY8V3E1mCf4ulVTYDHRv8/hXXBI5pJnnMunnn5W6elY9xYfOMBulepT6eoUnDdP89q524swHH3ulbp22Mb23PKbm1Kbcg1z9wIxjJrv9RiX5Ovf+lee30ajbz6110mYVGc9cMnGCKx4Y0GcmrE8ijHIrEF4T3Wu6nI5Js+4vguoHim4/wCvV/8A0NK/SPwumNPtif8Angn8hX5r/BaUt4puBx/x6v8A+hpX6W+HCf7JtP8ArhH/AOgivToSOGszpqKQdBS12XOU/9D90vFfGiXH/AP/AEIV8n+KD/xMJz/u/wAhX1r4kXzNHmXpnb/6EK+UvFtn/wATK4O7+52/2Vr57OI3h/XmejhZWMzS3IWM/X+tdCszbccVyVna4Cnd69q3ILXcyjd1P9a+X9g2exTqaE88hLj6VNbsSR9a0ItL3EHzO/p/9etOPTvK43579P8A69ZvDNGqqD7FQ2M/3q6WKJdtY8CeV3zzmtOO4wvSrhh2EqhcCAVYgY80RfPntitBYtveu6nh2c0qgiHOatA5pirUy1o6DMXUGN0qCX7tWycVG/IxWM6MrE85iyjP51QdRmtuRc/nVZo8964KlGR0QqGKyjBqpNGCprojFx1qB4N2RmuR0ZXNfaHKPEoBqq6Cutazz/F+lVnsc5+b9P8A69UqMifbHLFBimiNcZrpDY4P3v0/+vS/Ycj736UOjI1hWObEa9adsFdALLH8X6UjWPGd36UuSXY6lXRzjjHFQ9wPWt2Wy4PzdvSs82m053dPapcJdjaNdFVkCqcVkXTFc49K3ZIcqTntWDdWu4/e7elZ8suxarI5m+kJBz/drkrxQdufevQv7M3g/Pj8P/r1Wk0Tdj97/wCO/wD16lxl2H7VHln2CE9Sa6Kw0m3bflm7dx/hXSx6F1/e/wDjv/166+w0rbv/AHnp2+vvS5ZdjGdRGFBo1rz8zfmP8K2Y9Htufmb9P8K69YNnfrUqHFHLLsY+3sc6ml24Uct09R/hVG80+ELjLdfau6/hFZV2m4fjRyy7G0cQeSanp8ODy33/AG96831TS7dmbJb759Pf2r6EmsPMJ+fHOelYlzoe/J83v/d/+vSSl2L+sHzBqWj2pZzubt3Ht7Vx97o9qGY7m7dx/hX1de+HNxY+d6fw/wD165q78Lbi37/0/h/+vW0YSK9pFnynd6Vbjcct29P8KyG0+FW4LfpX1Be+Eshv9I9P4P8A7Kudm8IfOf8ASP8Axz/7KtowkClE+fJNMgcEkt09qybjS7cHgt09R/hX0RceD8/8vHb+5/8AZVhXXg3J/wCPnt/c/wDsq2VORrFxPB/7Oh9W/T/CoZdMgbqW6eo/wr2pvBn/AE8/+Of/AGVQt4O/6eP/ABz/AOyp8kjojKJ41DpFsV+83X2/wrZt9FtTn5n/ADH+FeoweENqY+0d/wC5/wDZVuW3hTG7/SPT+D/69VySK5onAWeh2nzfM/buP8K62DRrXn5m/Mf4V3dv4Yxn9/8A+O//AF6118Pbf+W3/jv/ANen7ORk5RPNLnS4I9u1m5z6VGlnEvQmvS59G2Y/eZz7f/XqhLpWB/rO/p/9ej2cjNyicbHGAce1aUEak4PpWn/ZmGPz/p/9etG107B+/wBvT/69L2Uhe1iinaQIW6npWzBboCOTWrZ6Zk/f7en/ANetiHS+R+8/T/69S6UjGddLYx4Yl461eSMDFbceldD5n6f/AF6nGmYOd/6f/XrN0pGft0YqIOKuIowK0/7Pwud/6f8A16kSz+UfN+lVGnIiVZGO6DNMKDFbjWn+1+n/ANeoTacH5v0/+vXTCnI55VUc5cINp+lcreqBKPpXfXFp8jfN2Pb/AOvXK3dnukB3dvSu2lTfU5alVM8g1M42fj/SvNNQcjZ+Ne03+lZ2fvPXt9PeuAv9C3bP3vr/AA//AF69CnA451Dw+9ncbcAd659JGFeoXfhvdt/fev8AD/8AXrl18N/9Nv8Ax3/69dsIGDmfY3wQkJ8V3A/6dH/9GR1+nfhxQdGs/wDrhH/6CK/M74N6Z9n8Tzvvzm1YdP8AbT3r9LfC7Y0q0X0t4/8A0EV6NGBzVWdMCQMUu406iuuxzn//0f3p1FPMsXTOM4/mK811TQvtG+XzcZxxt+nvXrR61A/3q4cXh1Vjys3pzcTxqHw5hAfO/wDHf/r1eh0HDL+97/3f/r16rRXBHLo9/wCvvOlYtrocCuk7CP3n6f8A16lbSt/PmY/D/wCvXc0VX9nx7lfXJdjgjomf+Wv/AI7/APXpn9hf9Nf/AB3/AOvXoa9KWtI4CC6/195LxsjiIdK25/efp/8AXq//AGfu/j/T/wCvXUUVusJFGbxLZzA07H8f6f8A16X+zv8Ab/T/AOvXTUU3hYsn27OWNhn+P9P/AK9KunZP3/0/+vXUUVH1OIe3ZybaZkn5/wBP/r0z+zMnG/8AT/69dfSN0pSwMGVHEtHJ/wBmcY3/AKf/AF6adN2/x/p/9eurorL+zoF/WpHLrYZ/j/T/AOvQdNz/AB/p/wDXrqKKay+BLxEjkTpuG+/+n/16cNNz/H+n/wBeuspR1o/s+H9f8OV9akcp/Zf/AE0/T/69NbTO2/8AT/69dmvSkbrR/Z8CfrcjhZNI7+Z+n/16qSaRlT+87en/ANevQ6KHl8C1jZI8vGi7h/rP/Hf/AK9RvoOT/rf/AB3/AOvXqlFT/Z0Cv7Ql2PLI9B2j/W/+O/8A16e2if8ATX/x3/69eoUUv7Mp/wBf8OP+0JdjzI6Ln/lr/wCO/wD16fHpOM/vP0/+vXo1FP8As2n/AF/w5TzCb3R5zJo27H7z/wAd/wDr0xNBz/y1/wDHf/r16TRUvLKf9f8ADmf1yXY83Gj4OPM6e3/16Y2iZ583/wAd/wDr16kOgpan+y6f9f8ADjWPkuh5amh4OfN/8d/+vTX0PP8Ay1/8d/8Ar16pRR/ZdP8Ar/hx/wBoS7HlDaD8n+t/8d/+vVU+Htzf67/x3/69evHrSVP9lw7/ANfeL67I8bm8M5U/v/8Ax3/69ZcnhXLH9/8A+O//AF694ph61ccth3/r7wWNkfP8vg7zDn7Tjj+5/wDZVSk8D5/5ev8Axz/7KvoyitVl0O/9feWswl2PmeTwJ3+1f+Of/ZVUbwL/ANPX/jn/ANlX1HRT/s6Hf+vvKWZT7f19x8tL4DyM/a//ACH/APZVei8BYz/pf/kP/wCyr6Xoo/s6Hf8Ar7x/2nPt/X3Hzyvgfb/y9f8Ajn/2VIfBeP8Al5/8c/8Asq+h6KP7Oh3/AK+8X9pT7f19x84P4Lz/AMvP/jn/ANlTf+EIyP8Aj6/8c/8Asq+kaKX9nw7/ANfeQ8fLsfNR8CZOftf/AI5/9lUkfgbaf+Pr/wAc/wDsq+kaKPqECPrkj59i8IeVz9ozxj7n/wBetCHwt0Pn/wDjv/1691TrTj1p/UIf1/w4fXZdjxhfDHy/6/8A8d/+vUT+GsZ/ff8Ajv8A9eva6Kn+z4f1/wAOL67LseGt4a3fL5//AI7/APXpV8L4H+v/APHf/r17gelMo/s+AfXJM8Ok8L8/6/8A8d/+vTB4V4/1/wD47/8AXr3SitFgoon6yzwOXwpnj7R1H93/AOvVB/BmTn7T/wCOf/ZV9GDrT6Hg4sl4hny1N4E3Y/0r/wAc/wDsqxpfh5ux/pn/AJD/APsq+vGptXHCpdSHWbPi+T4a5x/pv/kP/wCzqgnwux/y/f8AkL/7Ovt+oVraNFIn2jPAvCPgn7FqTy/ad2YiMbMd1/2q92tIPs1vGmd21Qv5CtNetTDpXRBWIlK5EvKg0tSUVpci5//Z;" vertex="1" parent="1">
          <mxGeometry x="60" y="315" width="101.08" height="100" as="geometry" />
        </mxCell>
        <mxCell id="DUQ9XiMEW-5NnPEdg38k-36" style="edgeStyle=orthogonalEdgeStyle;rounded=0;orthogonalLoop=1;jettySize=auto;html=1;entryX=0;entryY=0.5;entryDx=0;entryDy=0;" edge="1" parent="1" source="DUQ9XiMEW-5NnPEdg38k-3" target="DUQ9XiMEW-5NnPEdg38k-28">
          <mxGeometry relative="1" as="geometry" />
        </mxCell>
        <mxCell id="DUQ9XiMEW-5NnPEdg38k-3" value="" style="rounded=0;whiteSpace=wrap;html=1;" vertex="1" parent="1">
          <mxGeometry x="450" y="100" width="270" height="180" as="geometry" />
        </mxCell>
        <mxCell id="DUQ9XiMEW-5NnPEdg38k-6" style="edgeStyle=orthogonalEdgeStyle;rounded=0;orthogonalLoop=1;jettySize=auto;html=1;entryX=0;entryY=0.5;entryDx=0;entryDy=0;" edge="1" parent="1" source="DUQ9XiMEW-5NnPEdg38k-4" target="DUQ9XiMEW-5NnPEdg38k-3">
          <mxGeometry relative="1" as="geometry" />
        </mxCell>
        <mxCell id="DUQ9XiMEW-5NnPEdg38k-4" value="Task Similarity" style="rounded=0;whiteSpace=wrap;html=1;" vertex="1" parent="1">
          <mxGeometry x="220" y="340" width="110" height="50" as="geometry" />
        </mxCell>
        <mxCell id="DUQ9XiMEW-5NnPEdg38k-7" value="" style="shape=cube;whiteSpace=wrap;html=1;boundedLbl=1;backgroundOutline=1;darkOpacity=0.05;darkOpacity2=0.1;rotation=0;flipH=1;fillColor=#6d8764;fontColor=#ffffff;strokeColor=#3A5431;" vertex="1" parent="1">
          <mxGeometry x="480" y="120" width="30" height="137.5" as="geometry" />
        </mxCell>
        <mxCell id="DUQ9XiMEW-5NnPEdg38k-9" value="" style="shape=cube;whiteSpace=wrap;html=1;boundedLbl=1;backgroundOutline=1;darkOpacity=0.05;darkOpacity2=0.1;rotation=0;flipH=1;fillColor=#6d8764;fontColor=#ffffff;strokeColor=#3A5431;" vertex="1" parent="1">
          <mxGeometry x="500" y="120" width="30" height="137.5" as="geometry" />
        </mxCell>
        <mxCell id="DUQ9XiMEW-5NnPEdg38k-10" value="" style="shape=cube;whiteSpace=wrap;html=1;boundedLbl=1;backgroundOutline=1;darkOpacity=0.05;darkOpacity2=0.1;rotation=0;flipH=1;fillColor=#6d8764;fontColor=#ffffff;strokeColor=#3A5431;" vertex="1" parent="1">
          <mxGeometry x="520" y="145" width="30" height="87.5" as="geometry" />
        </mxCell>
        <mxCell id="DUQ9XiMEW-5NnPEdg38k-13" value="" style="shape=cube;whiteSpace=wrap;html=1;boundedLbl=1;backgroundOutline=1;darkOpacity=0.05;darkOpacity2=0.1;rotation=0;flipH=1;fillColor=#6d8764;fontColor=#ffffff;strokeColor=#3A5431;" vertex="1" parent="1">
          <mxGeometry x="540" y="145" width="30" height="87.5" as="geometry" />
        </mxCell>
        <mxCell id="DUQ9XiMEW-5NnPEdg38k-14" value="" style="shape=cube;whiteSpace=wrap;html=1;boundedLbl=1;backgroundOutline=1;darkOpacity=0.05;darkOpacity2=0.1;rotation=0;flipH=1;size=20;fillColor=#6d8764;fontColor=#ffffff;strokeColor=#3A5431;" vertex="1" parent="1">
          <mxGeometry x="560" y="158.43" width="40" height="60.63" as="geometry" />
        </mxCell>
        <mxCell id="DUQ9XiMEW-5NnPEdg38k-15" value="" style="shape=cube;whiteSpace=wrap;html=1;boundedLbl=1;backgroundOutline=1;darkOpacity=0.05;darkOpacity2=0.1;rotation=0;flipH=1;size=20;fillColor=#6d8764;fontColor=#ffffff;strokeColor=#3A5431;" vertex="1" parent="1">
          <mxGeometry x="590" y="159.68" width="40" height="60.63" as="geometry" />
        </mxCell>
        <mxCell id="DUQ9XiMEW-5NnPEdg38k-37" style="edgeStyle=orthogonalEdgeStyle;rounded=0;orthogonalLoop=1;jettySize=auto;html=1;entryX=0;entryY=0.5;entryDx=0;entryDy=0;" edge="1" parent="1" source="DUQ9XiMEW-5NnPEdg38k-18" target="DUQ9XiMEW-5NnPEdg38k-28">
          <mxGeometry relative="1" as="geometry" />
        </mxCell>
        <mxCell id="DUQ9XiMEW-5NnPEdg38k-18" value="" style="rounded=0;whiteSpace=wrap;html=1;" vertex="1" parent="1">
          <mxGeometry x="450" y="420" width="270" height="180" as="geometry" />
        </mxCell>
        <mxCell id="DUQ9XiMEW-5NnPEdg38k-19" value="" style="shape=cube;whiteSpace=wrap;html=1;boundedLbl=1;backgroundOutline=1;darkOpacity=0.05;darkOpacity2=0.1;rotation=0;flipH=1;fillColor=#647687;fontColor=#ffffff;strokeColor=#314354;" vertex="1" parent="1">
          <mxGeometry x="480" y="440" width="30" height="137.5" as="geometry" />
        </mxCell>
        <mxCell id="DUQ9XiMEW-5NnPEdg38k-20" value="" style="shape=cube;whiteSpace=wrap;html=1;boundedLbl=1;backgroundOutline=1;darkOpacity=0.05;darkOpacity2=0.1;rotation=0;flipH=1;fillColor=#647687;fontColor=#ffffff;strokeColor=#314354;" vertex="1" parent="1">
          <mxGeometry x="500" y="440" width="30" height="137.5" as="geometry" />
        </mxCell>
        <mxCell id="DUQ9XiMEW-5NnPEdg38k-21" value="" style="shape=cube;whiteSpace=wrap;html=1;boundedLbl=1;backgroundOutline=1;darkOpacity=0.05;darkOpacity2=0.1;rotation=0;flipH=1;fillColor=#647687;fontColor=#ffffff;strokeColor=#314354;" vertex="1" parent="1">
          <mxGeometry x="520" y="465" width="30" height="87.5" as="geometry" />
        </mxCell>
        <mxCell id="DUQ9XiMEW-5NnPEdg38k-22" value="" style="shape=cube;whiteSpace=wrap;html=1;boundedLbl=1;backgroundOutline=1;darkOpacity=0.05;darkOpacity2=0.1;rotation=0;flipH=1;fillColor=#647687;fontColor=#ffffff;strokeColor=#314354;" vertex="1" parent="1">
          <mxGeometry x="540" y="465" width="30" height="87.5" as="geometry" />
        </mxCell>
        <mxCell id="DUQ9XiMEW-5NnPEdg38k-23" value="" style="shape=cube;whiteSpace=wrap;html=1;boundedLbl=1;backgroundOutline=1;darkOpacity=0.05;darkOpacity2=0.1;rotation=0;flipH=1;size=20;fillColor=#647687;fontColor=#ffffff;strokeColor=#314354;" vertex="1" parent="1">
          <mxGeometry x="560" y="478.43" width="40" height="60.63" as="geometry" />
        </mxCell>
        <mxCell id="DUQ9XiMEW-5NnPEdg38k-24" value="" style="shape=cube;whiteSpace=wrap;html=1;boundedLbl=1;backgroundOutline=1;darkOpacity=0.05;darkOpacity2=0.1;rotation=0;flipH=1;size=20;fillColor=#647687;fontColor=#ffffff;strokeColor=#314354;" vertex="1" parent="1">
          <mxGeometry x="590" y="479.68" width="40" height="60.63" as="geometry" />
        </mxCell>
        <mxCell id="DUQ9XiMEW-5NnPEdg38k-25" value="" style="shape=cube;whiteSpace=wrap;html=1;boundedLbl=1;backgroundOutline=1;darkOpacity=0.05;darkOpacity2=0.1;rotation=0;flipH=1;size=10;fillColor=#647687;fontColor=#ffffff;strokeColor=#314354;" vertex="1" parent="1">
          <mxGeometry x="630" y="490" width="30" height="40.16" as="geometry" />
        </mxCell>
        <mxCell id="DUQ9XiMEW-5NnPEdg38k-26" style="edgeStyle=orthogonalEdgeStyle;rounded=0;orthogonalLoop=1;jettySize=auto;html=1;entryX=0;entryY=0.5;entryDx=0;entryDy=0;" edge="1" parent="1" source="DUQ9XiMEW-5NnPEdg38k-4" target="DUQ9XiMEW-5NnPEdg38k-18">
          <mxGeometry relative="1" as="geometry" />
        </mxCell>
        <mxCell id="DUQ9XiMEW-5NnPEdg38k-27" value="" style="shape=cube;whiteSpace=wrap;html=1;boundedLbl=1;backgroundOutline=1;darkOpacity=0.05;darkOpacity2=0.1;rotation=0;flipH=1;size=10;fillColor=#6d8764;fontColor=#ffffff;strokeColor=#3A5431;" vertex="1" parent="1">
          <mxGeometry x="630" y="169.92000000000002" width="30" height="40.16" as="geometry" />
        </mxCell>
        <mxCell id="DUQ9XiMEW-5NnPEdg38k-39" style="edgeStyle=orthogonalEdgeStyle;rounded=0;orthogonalLoop=1;jettySize=auto;html=1;entryX=0;entryY=0.25;entryDx=0;entryDy=0;dashed=1;dashPattern=8 8;" edge="1" parent="1" source="DUQ9XiMEW-5NnPEdg38k-28" target="DUQ9XiMEW-5NnPEdg38k-3">
          <mxGeometry relative="1" as="geometry">
            <Array as="points">
              <mxPoint x="1150" y="340" />
              <mxPoint x="1150" y="60" />
              <mxPoint x="390" y="60" />
              <mxPoint x="390" y="145" />
            </Array>
          </mxGeometry>
        </mxCell>
        <mxCell id="DUQ9XiMEW-5NnPEdg38k-28" value="" style="rounded=0;whiteSpace=wrap;html=1;" vertex="1" parent="1">
          <mxGeometry x="840" y="250" width="270" height="180" as="geometry" />
        </mxCell>
        <mxCell id="DUQ9XiMEW-5NnPEdg38k-29" value="" style="shape=cube;whiteSpace=wrap;html=1;boundedLbl=1;backgroundOutline=1;darkOpacity=0.05;darkOpacity2=0.1;rotation=0;flipH=1;fillColor=#6d8764;fontColor=#ffffff;strokeColor=#3A5431;" vertex="1" parent="1">
          <mxGeometry x="870" y="270" width="30" height="137.5" as="geometry" />
        </mxCell>
        <mxCell id="DUQ9XiMEW-5NnPEdg38k-30" value="" style="shape=cube;whiteSpace=wrap;html=1;boundedLbl=1;backgroundOutline=1;darkOpacity=0.05;darkOpacity2=0.1;rotation=0;flipH=1;fillColor=#647687;fontColor=#ffffff;strokeColor=#314354;" vertex="1" parent="1">
          <mxGeometry x="890" y="270" width="30" height="137.5" as="geometry" />
        </mxCell>
        <mxCell id="DUQ9XiMEW-5NnPEdg38k-31" value="" style="shape=cube;whiteSpace=wrap;html=1;boundedLbl=1;backgroundOutline=1;darkOpacity=0.05;darkOpacity2=0.1;rotation=0;flipH=1;fillColor=#6d8764;fontColor=#ffffff;strokeColor=#3A5431;" vertex="1" parent="1">
          <mxGeometry x="910" y="295" width="30" height="87.5" as="geometry" />
        </mxCell>
        <mxCell id="DUQ9XiMEW-5NnPEdg38k-32" value="" style="shape=cube;whiteSpace=wrap;html=1;boundedLbl=1;backgroundOutline=1;darkOpacity=0.05;darkOpacity2=0.1;rotation=0;flipH=1;fillColor=#647687;fontColor=#ffffff;strokeColor=#314354;" vertex="1" parent="1">
          <mxGeometry x="930" y="295" width="30" height="87.5" as="geometry" />
        </mxCell>
        <mxCell id="DUQ9XiMEW-5NnPEdg38k-33" value="" style="shape=cube;whiteSpace=wrap;html=1;boundedLbl=1;backgroundOutline=1;darkOpacity=0.05;darkOpacity2=0.1;rotation=0;flipH=1;size=20;fillColor=#6d8764;fontColor=#ffffff;strokeColor=#3A5431;" vertex="1" parent="1">
          <mxGeometry x="950" y="308.43" width="40" height="60.63" as="geometry" />
        </mxCell>
        <mxCell id="DUQ9XiMEW-5NnPEdg38k-34" value="" style="shape=cube;whiteSpace=wrap;html=1;boundedLbl=1;backgroundOutline=1;darkOpacity=0.05;darkOpacity2=0.1;rotation=0;flipH=1;size=20;fillColor=#647687;fontColor=#ffffff;strokeColor=#314354;" vertex="1" parent="1">
          <mxGeometry x="980" y="309.68" width="40" height="60.63" as="geometry" />
        </mxCell>
        <mxCell id="DUQ9XiMEW-5NnPEdg38k-35" value="" style="shape=cube;whiteSpace=wrap;html=1;boundedLbl=1;backgroundOutline=1;darkOpacity=0.05;darkOpacity2=0.1;rotation=0;flipH=1;size=10;fillColor=#76608a;fontColor=#ffffff;strokeColor=#432D57;" vertex="1" parent="1">
          <mxGeometry x="1020" y="319.92" width="30" height="40.16" as="geometry" />
        </mxCell>
        <mxCell id="DUQ9XiMEW-5NnPEdg38k-40" value="&lt;b&gt;&lt;i&gt;&lt;font style=&quot;font-size: 16px;&quot; face=&quot;Times New Roman&quot;&gt;Learned Network(Task n-1)&lt;/font&gt;&lt;/i&gt;&lt;/b&gt;" style="text;html=1;align=center;verticalAlign=middle;resizable=0;points=[];autosize=1;strokeColor=none;fillColor=none;" vertex="1" parent="1">
          <mxGeometry x="480" y="70" width="210" height="30" as="geometry" />
        </mxCell>
        <mxCell id="DUQ9XiMEW-5NnPEdg38k-41" value="&lt;b&gt;&lt;i&gt;&lt;font style=&quot;font-size: 16px;&quot; face=&quot;Times New Roman&quot;&gt;Auxiliary Network(Task n)&lt;/font&gt;&lt;/i&gt;&lt;/b&gt;" style="text;html=1;align=center;verticalAlign=middle;resizable=0;points=[];autosize=1;strokeColor=none;fillColor=none;" vertex="1" parent="1">
          <mxGeometry x="475" y="382.5" width="200" height="30" as="geometry" />
        </mxCell>
        <mxCell id="DUQ9XiMEW-5NnPEdg38k-42" value="&lt;font face=&quot;Times New Roman&quot;&gt;&lt;span style=&quot;font-size: 16px;&quot;&gt;&lt;b&gt;&lt;i&gt;Reorganization&lt;/i&gt;&lt;/b&gt;&lt;/span&gt;&lt;/font&gt;" style="text;html=1;align=center;verticalAlign=middle;resizable=0;points=[];autosize=1;strokeColor=none;fillColor=none;" vertex="1" parent="1">
          <mxGeometry x="925" y="202.5" width="120" height="30" as="geometry" />
        </mxCell>
        <mxCell id="DUQ9XiMEW-5NnPEdg38k-44" value="&lt;font face=&quot;Times New Roman&quot;&gt;&lt;span style=&quot;font-size: 16px;&quot;&gt;&lt;b&gt;&lt;i&gt;Update&lt;/i&gt;&lt;/b&gt;&lt;/span&gt;&lt;/font&gt;" style="text;html=1;align=center;verticalAlign=middle;resizable=0;points=[];autosize=1;strokeColor=none;fillColor=none;" vertex="1" parent="1">
          <mxGeometry x="940" y="60" width="70" height="30" as="geometry" />
        </mxCell>
        <mxCell id="DUQ9XiMEW-5NnPEdg38k-45" value="&lt;b&gt;&lt;i&gt;&lt;font style=&quot;font-size: 16px;&quot; face=&quot;Times New Roman&quot;&gt;New Task&lt;/font&gt;&lt;/i&gt;&lt;/b&gt;" style="text;html=1;align=center;verticalAlign=middle;resizable=0;points=[];autosize=1;strokeColor=none;fillColor=none;" vertex="1" parent="1">
          <mxGeometry x="65" y="278.43" width="90" height="30" as="geometry" />
        </mxCell>
      </root>
    </mxGraphModel>
  </diagram>
</mxfile>
